<?xml version="1.0" encoding="utf-8"?>
<!-- Generator: Adobe Illustrator 21.0.0, SVG Export Plug-In . SVG Version: 6.00 Build 0)  -->
<svg version="1.1" xmlns="http://www.w3.org/2000/svg" xmlns:xlink="http://www.w3.org/1999/xlink" x="0px" y="0px"
	 viewBox="0 0 350 380" style="enable-background:new 0 0 350 380;" xml:space="preserve">
<style type="text/css">
	.st0{fill:none;stroke:#333333;}
	.st1{fill:#666666;}
	.st2{fill:#1A1A1A;}
	.st3{fill:#FFD9D9;stroke:#333333;stroke-width:2;}
	.st4{fill:#FFA1A1;stroke:#333333;stroke-width:2;}
	.st5{fill:none;stroke:#333333;stroke-width:3;}
	.st6{fill:none;stroke:#1A1A1A;}
	.st7{fill:#333333;}
</style>
<g id="Layer_3">
	<line class="st0" x1="52.3" y1="54" x2="60.4" y2="54"/>
	<line class="st0" x1="52.3" y1="82.7" x2="60.4" y2="82.7"/>
	<line class="st0" x1="52.3" y1="111.4" x2="60.4" y2="111.4"/>
	<line class="st0" x1="52.3" y1="140.1" x2="60.4" y2="140.1"/>
	<line class="st0" x1="52.3" y1="168.8" x2="60.4" y2="168.8"/>
	<line class="st0" x1="52.3" y1="197.5" x2="60.4" y2="197.5"/>
	<line class="st0" x1="52.3" y1="226.2" x2="60.4" y2="226.2"/>
	<line class="st0" x1="52.3" y1="254.9" x2="60.4" y2="254.9"/>
	<line class="st0" x1="52.3" y1="283.6" x2="60.4" y2="283.6"/>
	<line class="st0" x1="52.3" y1="312.3" x2="60.4" y2="312.3"/>
	<line class="st0" x1="52.3" y1="341" x2="60.4" y2="341"/>
	<line class="st0" x1="60.4" y1="53.5" x2="60.4" y2="341.5"/>
	<g>
		<path class="st1" d="M31.3,50.2L31.3,50.2L30,50.9l-0.2-0.8l1.7-0.9h0.9V57h-1V50.2z"/>
		<path class="st1" d="M40.7,53c0,2.7-1,4.1-2.7,4.1c-1.5,0-2.6-1.4-2.6-4c0-2.6,1.1-4.1,2.7-4.1C39.7,49.1,40.7,50.5,40.7,53z
			 M36.4,53.1c0,2,0.6,3.2,1.6,3.2c1.1,0,1.6-1.3,1.6-3.2c0-1.9-0.5-3.2-1.6-3.2C37.1,49.9,36.4,51,36.4,53.1z"/>
		<path class="st1" d="M47.1,53c0,2.7-1,4.1-2.7,4.1c-1.5,0-2.6-1.4-2.6-4c0-2.6,1.1-4.1,2.7-4.1C46.2,49.1,47.1,50.5,47.1,53z
			 M42.9,53.1c0,2,0.6,3.2,1.6,3.2c1.1,0,1.6-1.3,1.6-3.2c0-1.9-0.5-3.2-1.6-3.2C43.6,49.9,42.9,51,42.9,53.1z"/>
	</g>
	<g>
		<path class="st2" d="M182.3,21.2h1.4v9.5h3.8v-9.5h1.4v9.5h3.8v-9.5h1.4V32h-11.9V21.2z"/>
		<path class="st2" d="M196.7,24.2h1.3V28l4-3.8h1.8l-3.7,3.5l3.7,4.4h-1.7l-3.1-3.6l-1,0.8V32h-1.3V24.2z"/>
		<path class="st2" d="M205.3,26.5c0-0.5,0.1-0.9,0.3-1.2c0.2-0.3,0.4-0.6,0.7-0.8s0.6-0.4,1-0.4c0.4-0.1,0.8-0.1,1.3-0.1
			c0.4,0,0.8,0,1.1,0.1c0.4,0.1,0.7,0.2,1,0.4c0.3,0.2,0.5,0.4,0.7,0.7c0.2,0.3,0.3,0.6,0.3,1v4.6c0,0.1,0,0.2,0.1,0.3
			s0.2,0.1,0.3,0.1c0.1,0,0.1,0,0.2,0s0.1,0,0.2,0V32c-0.1,0-0.2,0.1-0.3,0.1c-0.1,0-0.2,0-0.4,0c-0.2,0-0.4,0-0.6-0.1
			c-0.2,0-0.3-0.1-0.4-0.2c-0.1-0.1-0.2-0.2-0.3-0.4c-0.1-0.1-0.1-0.3-0.1-0.5c-0.2,0.2-0.3,0.3-0.5,0.5c-0.2,0.2-0.4,0.3-0.6,0.4
			s-0.5,0.2-0.8,0.3c-0.3,0.1-0.6,0.1-1,0.1c-0.3,0-0.6,0-0.9-0.1c-0.3-0.1-0.5-0.2-0.8-0.4c-0.2-0.2-0.4-0.4-0.5-0.7
			c-0.1-0.3-0.2-0.6-0.2-1c0-0.4,0.1-0.8,0.2-1.1s0.3-0.5,0.5-0.7c0.2-0.2,0.5-0.4,0.8-0.5s0.6-0.2,0.9-0.2l2.2-0.3
			c0.2,0,0.4-0.1,0.5-0.2c0.1-0.1,0.2-0.4,0.2-0.7c0-0.5-0.2-0.8-0.5-1c-0.3-0.2-0.8-0.3-1.3-0.3c-0.6,0-1,0.1-1.3,0.4
			c-0.3,0.3-0.5,0.6-0.5,1.1H205.3z M210.1,28c-0.1,0.1-0.2,0.1-0.4,0.2c-0.2,0.1-0.3,0.1-0.5,0.1s-0.4,0.1-0.6,0.1
			c-0.2,0-0.4,0.1-0.6,0.1c-0.2,0-0.5,0.1-0.7,0.1s-0.4,0.1-0.5,0.2s-0.3,0.2-0.4,0.4c-0.1,0.1-0.1,0.3-0.1,0.5c0,0.2,0,0.4,0.1,0.6
			c0.1,0.2,0.2,0.3,0.3,0.4c0.1,0.1,0.3,0.2,0.5,0.3s0.4,0.1,0.6,0.1c0.1,0,0.3,0,0.5,0s0.3-0.1,0.5-0.1s0.4-0.1,0.5-0.2
			c0.2-0.1,0.3-0.2,0.5-0.4s0.2-0.3,0.3-0.5s0.1-0.4,0.1-0.6V28z"/>
		<path class="st2" d="M219.3,25.3h-3l-0.1,1.9c0,1-0.1,1.7-0.2,2.4c-0.1,0.6-0.3,1.1-0.5,1.5c-0.2,0.4-0.4,0.7-0.7,0.8
			s-0.6,0.2-1,0.2c-0.1,0-0.3,0-0.4-0.1c-0.1,0-0.2-0.1-0.2-0.1v-1.2c0.2,0.1,0.4,0.1,0.5,0.1c0.1,0,0.2,0,0.3-0.1
			c0.1,0,0.2-0.1,0.3-0.2c0.1-0.1,0.2-0.2,0.2-0.4s0.1-0.4,0.2-0.7c0.1-0.3,0.1-0.6,0.1-1c0-0.4,0.1-0.9,0.1-1.5l0.1-2.9h5.6V32
			h-1.3V25.3z"/>
		<path class="st2" d="M223,26.5c0-0.5,0.1-0.9,0.3-1.2c0.2-0.3,0.4-0.6,0.7-0.8s0.6-0.4,1-0.4c0.4-0.1,0.8-0.1,1.3-0.1
			c0.4,0,0.8,0,1.1,0.1c0.4,0.1,0.7,0.2,1,0.4c0.3,0.2,0.5,0.4,0.7,0.7c0.2,0.3,0.3,0.6,0.3,1v4.6c0,0.1,0,0.2,0.1,0.3
			s0.2,0.1,0.3,0.1c0.1,0,0.1,0,0.2,0s0.1,0,0.2,0V32c-0.1,0-0.2,0.1-0.3,0.1c-0.1,0-0.2,0-0.4,0c-0.2,0-0.4,0-0.6-0.1
			c-0.2,0-0.3-0.1-0.4-0.2c-0.1-0.1-0.2-0.2-0.3-0.4c-0.1-0.1-0.1-0.3-0.1-0.5c-0.2,0.2-0.3,0.3-0.5,0.5c-0.2,0.2-0.4,0.3-0.6,0.4
			s-0.5,0.2-0.8,0.3c-0.3,0.1-0.6,0.1-1,0.1c-0.3,0-0.6,0-0.9-0.1c-0.3-0.1-0.5-0.2-0.8-0.4c-0.2-0.2-0.4-0.4-0.5-0.7
			c-0.1-0.3-0.2-0.6-0.2-1c0-0.4,0.1-0.8,0.2-1.1s0.3-0.5,0.5-0.7c0.2-0.2,0.5-0.4,0.8-0.5s0.6-0.2,0.9-0.2l2.2-0.3
			c0.2,0,0.4-0.1,0.5-0.2c0.1-0.1,0.2-0.4,0.2-0.7c0-0.5-0.2-0.8-0.5-1c-0.3-0.2-0.8-0.3-1.3-0.3c-0.6,0-1,0.1-1.3,0.4
			c-0.3,0.3-0.5,0.6-0.5,1.1H223z M227.8,28c-0.1,0.1-0.2,0.1-0.4,0.2c-0.2,0.1-0.3,0.1-0.5,0.1s-0.4,0.1-0.6,0.1
			c-0.2,0-0.4,0.1-0.6,0.1c-0.2,0-0.5,0.1-0.7,0.1s-0.4,0.1-0.5,0.2s-0.3,0.2-0.4,0.4c-0.1,0.1-0.1,0.3-0.1,0.5c0,0.2,0,0.4,0.1,0.6
			c0.1,0.2,0.2,0.3,0.3,0.4c0.1,0.1,0.3,0.2,0.5,0.3s0.4,0.1,0.6,0.1c0.1,0,0.3,0,0.5,0s0.3-0.1,0.5-0.1s0.4-0.1,0.5-0.2
			c0.2-0.1,0.3-0.2,0.5-0.4s0.2-0.3,0.3-0.5s0.1-0.4,0.1-0.6V28z"/>
	</g>
	<g>
		<path class="st1" d="M36.1,84.8c0.2,0,0.5,0,0.9,0c0.6-0.1,1.2-0.3,1.6-0.8c0.5-0.5,0.9-1.2,1-2.1h0c-0.4,0.5-1.1,0.8-1.8,0.8
			c-1.4,0-2.3-1.1-2.3-2.4c0-1.5,1.1-2.8,2.7-2.8s2.6,1.3,2.6,3.3c0,1.7-0.6,2.9-1.3,3.7c-0.6,0.6-1.4,0.9-2.3,1
			c-0.4,0.1-0.7,0.1-1,0.1V84.8z M36.5,80.3c0,1,0.6,1.7,1.5,1.7c0.7,0,1.3-0.3,1.5-0.8c0.1-0.1,0.1-0.2,0.1-0.4
			c0-1.3-0.5-2.4-1.6-2.4C37.1,78.4,36.5,79.2,36.5,80.3z"/>
		<path class="st1" d="M47.1,81.5c0,2.7-1,4.1-2.7,4.1c-1.5,0-2.6-1.4-2.6-4c0-2.6,1.1-4.1,2.7-4.1C46.2,77.6,47.1,79,47.1,81.5z
			 M42.9,81.6c0,2,0.6,3.2,1.6,3.2c1.1,0,1.6-1.3,1.6-3.2c0-1.9-0.5-3.2-1.6-3.2C43.6,78.4,42.9,79.5,42.9,81.6z"/>
	</g>
	<g>
		<path class="st1" d="M35.4,113c0-1,0.6-1.7,1.5-2.1l0,0c-0.9-0.4-1.2-1.1-1.2-1.8c0-1.2,1-2.1,2.4-2.1c1.5,0,2.3,0.9,2.3,1.9
			c0,0.7-0.3,1.4-1.3,1.8v0c1,0.4,1.6,1.1,1.6,2c0,1.4-1.2,2.3-2.7,2.3C36.4,115.1,35.4,114.2,35.4,113z M39.6,113
			c0-0.9-0.7-1.4-1.7-1.7c-0.9,0.3-1.4,0.9-1.4,1.6c0,0.8,0.6,1.5,1.6,1.5C39,114.4,39.6,113.8,39.6,113z M36.7,109.1
			c0,0.8,0.6,1.2,1.5,1.4c0.7-0.2,1.2-0.7,1.2-1.4c0-0.6-0.4-1.3-1.3-1.3C37.2,107.8,36.7,108.4,36.7,109.1z"/>
		<path class="st1" d="M47.1,111c0,2.7-1,4.1-2.7,4.1c-1.5,0-2.6-1.4-2.6-4c0-2.6,1.1-4.1,2.7-4.1C46.2,107.1,47.1,108.5,47.1,111z
			 M42.9,111.1c0,2,0.6,3.2,1.6,3.2c1.1,0,1.6-1.3,1.6-3.2c0-1.9-0.5-3.2-1.6-3.2C43.6,107.9,42.9,109,42.9,111.1z"/>
	</g>
	<g>
		<path class="st1" d="M40.6,136.2v0.7l-3.4,7.1h-1.1l3.4-6.9v0h-3.8v-0.9H40.6z"/>
		<path class="st1" d="M47.1,140c0,2.7-1,4.1-2.7,4.1c-1.5,0-2.6-1.4-2.6-4c0-2.6,1.1-4.1,2.7-4.1C46.2,136.1,47.1,137.5,47.1,140z
			 M42.9,140.1c0,2,0.6,3.2,1.6,3.2c1.1,0,1.6-1.3,1.6-3.2c0-1.9-0.5-3.2-1.6-3.2C43.6,136.9,42.9,138,42.9,140.1z"/>
	</g>
	<g>
		<path class="st1" d="M40,164.4c-0.2,0-0.5,0-0.8,0c-1.7,0.3-2.5,1.5-2.7,2.8h0c0.4-0.5,1-0.9,1.9-0.9c1.4,0,2.4,1,2.4,2.5
			c0,1.4-1,2.7-2.6,2.7c-1.7,0-2.8-1.3-2.8-3.3c0-1.5,0.6-2.7,1.3-3.5c0.6-0.6,1.5-1,2.5-1.2c0.3,0,0.6-0.1,0.8-0.1V164.4z
			 M39.7,168.9c0-1.1-0.6-1.8-1.6-1.8c-0.6,0-1.2,0.4-1.5,1c-0.1,0.1-0.1,0.3-0.1,0.5c0,1.3,0.6,2.2,1.7,2.2
			C39,170.8,39.7,170.1,39.7,168.9z"/>
		<path class="st1" d="M47.1,167.5c0,2.7-1,4.1-2.7,4.1c-1.5,0-2.6-1.4-2.6-4c0-2.6,1.1-4.1,2.7-4.1C46.2,163.6,47.1,165,47.1,167.5
			z M42.9,167.6c0,2,0.6,3.2,1.6,3.2c1.1,0,1.6-1.3,1.6-3.2c0-1.9-0.5-3.2-1.6-3.2C43.6,164.4,42.9,165.5,42.9,167.6z"/>
	</g>
	<g>
		<path class="st1" d="M40.2,193.6h-3l-0.3,2c0.2,0,0.3,0,0.6,0c0.6,0,1.2,0.1,1.7,0.4c0.6,0.3,1.1,1,1.1,2c0,1.5-1.2,2.7-2.9,2.7
			c-0.9,0-1.6-0.2-1.9-0.5l0.3-0.8c0.3,0.2,1,0.4,1.7,0.4c1,0,1.8-0.6,1.8-1.7c0-1-0.7-1.7-2.2-1.7c-0.4,0-0.8,0-1.1,0.1l0.5-3.7
			h3.7V193.6z"/>
		<path class="st1" d="M47.1,196.5c0,2.7-1,4.1-2.7,4.1c-1.5,0-2.6-1.4-2.6-4c0-2.6,1.1-4.1,2.7-4.1C46.2,192.6,47.1,194,47.1,196.5
			z M42.9,196.6c0,2,0.6,3.2,1.6,3.2c1.1,0,1.6-1.3,1.6-3.2c0-1.9-0.5-3.2-1.6-3.2C43.6,193.4,42.9,194.5,42.9,196.6z"/>
	</g>
	<g>
		<path class="st1" d="M38.8,228.5v-2.1h-3.6v-0.7l3.5-5h1.1v4.8h1.1v0.8h-1.1v2.1H38.8z M38.8,225.6v-2.6c0-0.4,0-0.8,0-1.2h0
			c-0.2,0.5-0.4,0.8-0.6,1.2l-1.9,2.7v0H38.8z"/>
		<path class="st1" d="M47.1,224.5c0,2.7-1,4.1-2.7,4.1c-1.5,0-2.6-1.4-2.6-4c0-2.6,1.1-4.1,2.7-4.1C46.2,220.6,47.1,222,47.1,224.5
			z M42.9,224.6c0,2,0.6,3.2,1.6,3.2c1.1,0,1.6-1.3,1.6-3.2c0-1.9-0.5-3.2-1.6-3.2C43.6,221.4,42.9,222.5,42.9,224.6z"/>
	</g>
	<g>
		<path class="st1" d="M35.8,256.3c0.3,0.2,1,0.5,1.7,0.5c1.4,0,1.8-0.9,1.8-1.5c0-1.1-1-1.6-2-1.6h-0.6v-0.8h0.6
			c0.8,0,1.7-0.4,1.7-1.3c0-0.6-0.4-1.2-1.4-1.2c-0.6,0-1.2,0.3-1.6,0.5l-0.3-0.8c0.4-0.3,1.2-0.6,2-0.6c1.5,0,2.2,0.9,2.2,1.9
			c0,0.8-0.5,1.5-1.4,1.8v0c1,0.2,1.7,0.9,1.7,2c0,1.2-1,2.3-2.8,2.3c-0.9,0-1.6-0.3-2-0.5L35.8,256.3z"/>
		<path class="st1" d="M47.1,253.5c0,2.7-1,4.1-2.7,4.1c-1.5,0-2.6-1.4-2.6-4c0-2.6,1.1-4.1,2.7-4.1C46.2,249.6,47.1,251,47.1,253.5
			z M42.9,253.6c0,2,0.6,3.2,1.6,3.2c1.1,0,1.6-1.3,1.6-3.2c0-1.9-0.5-3.2-1.6-3.2C43.6,250.4,42.9,251.5,42.9,253.6z"/>
	</g>
	<g>
		<path class="st1" d="M35.5,286.5v-0.6l0.8-0.8c2-1.9,2.9-2.9,2.9-4.1c0-0.8-0.4-1.5-1.5-1.5c-0.7,0-1.3,0.4-1.7,0.7l-0.3-0.7
			c0.5-0.5,1.3-0.8,2.2-0.8c1.7,0,2.4,1.2,2.4,2.3c0,1.4-1,2.6-2.7,4.2l-0.6,0.6v0h3.5v0.9H35.5z"/>
		<path class="st1" d="M47.1,282.5c0,2.7-1,4.1-2.7,4.1c-1.5,0-2.6-1.4-2.6-4c0-2.6,1.1-4.1,2.7-4.1C46.2,278.6,47.1,280,47.1,282.5
			z M42.9,282.6c0,2,0.6,3.2,1.6,3.2c1.1,0,1.6-1.3,1.6-3.2c0-1.9-0.5-3.2-1.6-3.2C43.6,279.4,42.9,280.5,42.9,282.6z"/>
	</g>
	<g>
		<path class="st1" d="M37.8,308.7L37.8,308.7l-1.4,0.7l-0.2-0.8l1.7-0.9h0.9v7.8h-1V308.7z"/>
		<path class="st1" d="M47.1,311.5c0,2.7-1,4.1-2.7,4.1c-1.5,0-2.6-1.4-2.6-4c0-2.6,1.1-4.1,2.7-4.1C46.2,307.6,47.1,309,47.1,311.5
			z M42.9,311.6c0,2,0.6,3.2,1.6,3.2c1.1,0,1.6-1.3,1.6-3.2c0-1.9-0.5-3.2-1.6-3.2C43.6,308.4,42.9,309.5,42.9,311.6z"/>
	</g>
	<g>
		<path class="st1" d="M47.1,340.5c0,2.7-1,4.1-2.7,4.1c-1.5,0-2.6-1.4-2.6-4c0-2.6,1.1-4.1,2.7-4.1C46.2,336.6,47.1,338,47.1,340.5
			z M42.9,340.6c0,2,0.6,3.2,1.6,3.2c1.1,0,1.6-1.3,1.6-3.2c0-1.9-0.5-3.2-1.6-3.2C43.6,337.4,42.9,338.5,42.9,340.6z"/>
	</g>
</g>
<g id="Layer_2">
	<rect x="94.8" y="183.5" class="st3" width="36" height="63.5"/>
	<rect x="94.8" y="122" class="st4" width="35.3" height="61.7"/>
	<line class="st5" x1="112.8" y1="122" x2="112.8" y2="82.7"/>
	<rect x="94.8" y="122" class="st5" width="36" height="125"/>
	<line class="st5" x1="95.5" y1="183.7" x2="130.2" y2="183.7"/>
	<line class="st5" x1="112.8" y1="247" x2="112.8" y2="306"/>
	<line class="st5" x1="93.3" y1="82.3" x2="132.3" y2="82.3"/>
	<line class="st5" x1="93.3" y1="305.3" x2="132.3" y2="305.3"/>
	<polyline class="st6" points="175.5,27 39.4,27 39.4,39 	"/>
	<circle class="st7" cx="112.8" cy="334" r="4"/>
	<g>
		<g>
			<path class="st2" d="M182.3,75.9h3.9c0.4,0,0.8,0,1.1,0c0.3,0,0.6,0.1,0.9,0.1c0.3,0.1,0.5,0.2,0.7,0.3c0.2,0.1,0.4,0.3,0.6,0.5
				c0.2,0.2,0.3,0.5,0.4,0.7c0.1,0.3,0.2,0.6,0.2,0.9c0,0.2,0,0.4-0.1,0.6s-0.1,0.4-0.2,0.6s-0.3,0.4-0.4,0.6
				c-0.2,0.2-0.4,0.3-0.7,0.4c0.2,0.1,0.4,0.2,0.7,0.3s0.4,0.3,0.6,0.5c0.2,0.2,0.3,0.5,0.5,0.8c0.1,0.3,0.2,0.6,0.2,1.1
				c0,0.2,0,0.5-0.1,0.7c-0.1,0.3-0.1,0.5-0.3,0.7c-0.1,0.2-0.3,0.5-0.5,0.7s-0.4,0.4-0.7,0.5c-0.3,0.2-0.6,0.3-1,0.4
				c-0.4,0.1-0.8,0.1-1.2,0.1h-4.5V75.9z M186.4,80.5c0.5,0,0.9,0,1.1-0.1c0.3-0.1,0.5-0.2,0.7-0.4c0.2-0.2,0.3-0.3,0.3-0.5
				s0.1-0.4,0.1-0.7c0-0.3,0-0.5-0.1-0.7c-0.1-0.2-0.2-0.4-0.4-0.5s-0.4-0.2-0.7-0.3c-0.3-0.1-0.6-0.1-1-0.1h-2.7v3.3H186.4z
				 M186.6,85.4c0.5,0,0.9,0,1.2-0.1c0.3-0.1,0.6-0.2,0.8-0.4c0.2-0.2,0.3-0.4,0.4-0.6s0.1-0.5,0.1-0.8s0-0.5-0.1-0.8
				s-0.2-0.4-0.4-0.6c-0.2-0.2-0.5-0.3-0.8-0.4c-0.3-0.1-0.7-0.1-1.2-0.1h-2.9v3.8H186.6z"/>
			<path class="st2" d="M199.2,84.2c-0.1,0.3-0.2,0.7-0.4,1s-0.4,0.6-0.7,0.9s-0.6,0.5-1,0.6c-0.4,0.2-0.8,0.2-1.3,0.2
				c-0.5,0-1-0.1-1.5-0.3c-0.4-0.2-0.8-0.4-1.2-0.8c-0.3-0.3-0.6-0.8-0.8-1.3s-0.3-1.1-0.3-1.9c0-0.5,0.1-0.9,0.2-1.3
				c0.1-0.4,0.2-0.7,0.4-1c0.2-0.3,0.4-0.6,0.6-0.8c0.2-0.2,0.5-0.4,0.7-0.5c0.3-0.1,0.5-0.3,0.8-0.3s0.5-0.1,0.8-0.1
				c0.5,0,1,0.1,1.5,0.2s0.8,0.4,1.1,0.7c0.3,0.3,0.6,0.7,0.7,1.2c0.2,0.5,0.3,1.1,0.3,1.7v0.7h-5.7c0,0.4,0.1,0.7,0.2,1
				s0.2,0.6,0.4,0.8s0.4,0.4,0.7,0.5c0.3,0.1,0.6,0.2,0.9,0.2c0.3,0,0.6,0,0.9-0.1s0.4-0.2,0.6-0.4s0.3-0.3,0.4-0.5
				c0.1-0.2,0.2-0.4,0.3-0.5H199.2z M197.9,82.1c0-0.4-0.1-0.7-0.2-1c-0.1-0.3-0.3-0.5-0.4-0.8c-0.2-0.2-0.4-0.4-0.7-0.5
				c-0.3-0.1-0.6-0.2-0.9-0.2c-0.3,0-0.6,0.1-0.8,0.2s-0.5,0.3-0.7,0.5c-0.2,0.2-0.4,0.5-0.5,0.8c-0.1,0.3-0.2,0.6-0.2,1H197.9z"/>
			<path class="st2" d="M201.2,78.8h1.3v1.1h0c0.1-0.2,0.2-0.4,0.3-0.5c0.1-0.2,0.3-0.3,0.5-0.4c0.2-0.1,0.4-0.2,0.7-0.3
				c0.2-0.1,0.5-0.1,0.8-0.1c0.4,0,0.8,0.1,1.2,0.2s0.7,0.4,1,0.7s0.5,0.7,0.7,1.2c0.2,0.5,0.3,1.1,0.3,1.7c0,0.8-0.1,1.5-0.2,2.1
				c-0.2,0.6-0.4,1-0.7,1.4c-0.3,0.4-0.7,0.6-1.1,0.8s-0.9,0.2-1.4,0.2c-0.3,0-0.5,0-0.7-0.1c-0.2-0.1-0.4-0.2-0.6-0.3
				c-0.2-0.1-0.3-0.2-0.5-0.4s-0.2-0.3-0.3-0.4h0v4h-1.3V78.8z M202.5,82.8c0,0.4,0,0.8,0.1,1.2c0.1,0.4,0.2,0.7,0.4,0.9
				c0.2,0.3,0.4,0.5,0.7,0.6c0.3,0.1,0.6,0.2,0.9,0.2c0.4,0,0.7-0.1,1-0.2c0.3-0.1,0.5-0.4,0.7-0.6s0.3-0.6,0.4-0.9
				c0.1-0.4,0.1-0.8,0.1-1.2c0-0.4,0-0.9-0.1-1.2s-0.2-0.7-0.4-1s-0.4-0.5-0.7-0.6c-0.3-0.1-0.6-0.2-1-0.2c-0.4,0-0.7,0.1-0.9,0.2
				c-0.3,0.1-0.5,0.4-0.7,0.6c-0.2,0.3-0.3,0.6-0.4,1S202.5,82.3,202.5,82.8z"/>
			<path class="st2" d="M212.6,83.7l-1.8,2.9h-1.7l2.7-4l-2.6-3.8h1.7l1.9,2.7l1.8-2.7h1.6l-2.7,3.8l2.8,4h-1.7L212.6,83.7z"/>
			<path class="st2" d="M217.8,78.8h1.3V82h3.7v-3.2h1.4v7.8h-1.4v-3.5h-3.7v3.5h-1.3V78.8z"/>
			<path class="st2" d="M232.9,86.7h-1.4v-3.1h-1.7c-0.3,0-0.6,0-0.8,0c-0.2,0-0.4,0.1-0.6,0.1s-0.3,0.2-0.4,0.4
				c-0.1,0.2-0.1,0.4-0.2,0.7l-0.1,0.8c0,0,0,0.1,0,0.1s0,0.2,0,0.3c0,0.1,0,0.2-0.1,0.3s-0.1,0.2-0.1,0.3h-1.5c0,0,0.1-0.1,0.1-0.1
				c0,0,0.1-0.1,0.1-0.2c0-0.1,0.1-0.2,0.1-0.3c0-0.1,0.1-0.3,0.1-0.5l0.1-1c0-0.3,0.1-0.5,0.1-0.6c0-0.2,0.1-0.3,0.2-0.4
				c0.1-0.1,0.2-0.2,0.3-0.3c0.1-0.1,0.3-0.1,0.5-0.2c-0.8-0.3-1.3-0.9-1.3-1.9c0-0.2,0-0.5,0.1-0.6c0.1-0.2,0.1-0.4,0.2-0.5
				c0.1-0.2,0.2-0.3,0.3-0.4c0.1-0.1,0.2-0.2,0.4-0.3c0.2-0.1,0.3-0.2,0.5-0.2c0.2-0.1,0.4-0.1,0.5-0.1c0.2,0,0.4,0,0.5,0
				s0.3,0,0.5,0h3.5V86.7z M231.6,80h-2.1c-0.2,0-0.3,0-0.5,0c-0.1,0-0.2,0-0.3,0c-0.1,0-0.2,0-0.3,0.1s-0.2,0.1-0.2,0.1
				c-0.2,0.1-0.3,0.2-0.4,0.4c-0.1,0.2-0.1,0.4-0.1,0.6c0,0.2,0,0.4,0.1,0.5c0.1,0.1,0.1,0.3,0.3,0.4c0.1,0.1,0.2,0.2,0.4,0.2
				c0.1,0.1,0.3,0.1,0.4,0.1c0.1,0,0.3,0,0.4,0s0.2,0,0.3,0h2.1V80z"/>
			<path class="st2" d="M241.7,86.7h-1.4v-3.1h-1.7c-0.3,0-0.6,0-0.8,0c-0.2,0-0.4,0.1-0.6,0.1s-0.3,0.2-0.4,0.4
				c-0.1,0.2-0.1,0.4-0.2,0.7l-0.1,0.8c0,0,0,0.1,0,0.1s0,0.2,0,0.3c0,0.1,0,0.2-0.1,0.3s-0.1,0.2-0.1,0.3h-1.5c0,0,0.1-0.1,0.1-0.1
				c0,0,0.1-0.1,0.1-0.2c0-0.1,0.1-0.2,0.1-0.3c0-0.1,0.1-0.3,0.1-0.5l0.1-1c0-0.3,0.1-0.5,0.1-0.6c0-0.2,0.1-0.3,0.2-0.4
				c0.1-0.1,0.2-0.2,0.3-0.3c0.1-0.1,0.3-0.1,0.5-0.2c-0.8-0.3-1.3-0.9-1.3-1.9c0-0.2,0-0.5,0.1-0.6c0.1-0.2,0.1-0.4,0.2-0.5
				c0.1-0.2,0.2-0.3,0.3-0.4c0.1-0.1,0.2-0.2,0.4-0.3c0.2-0.1,0.3-0.2,0.5-0.2c0.2-0.1,0.4-0.1,0.5-0.1c0.2,0,0.4,0,0.5,0
				s0.3,0,0.5,0h3.5V86.7z M240.3,80h-2.1c-0.2,0-0.3,0-0.5,0c-0.1,0-0.2,0-0.3,0c-0.1,0-0.2,0-0.3,0.1s-0.2,0.1-0.2,0.1
				c-0.2,0.1-0.3,0.2-0.4,0.4c-0.1,0.2-0.1,0.4-0.1,0.6c0,0.2,0,0.4,0.1,0.5c0.1,0.1,0.1,0.3,0.3,0.4c0.1,0.1,0.2,0.2,0.4,0.2
				c0.1,0.1,0.3,0.1,0.4,0.1c0.1,0,0.3,0,0.4,0s0.2,0,0.3,0h2.1V80z"/>
			<path class="st2" d="M248.6,78.8h4.9V80h-3.5v6.7h-1.3V78.8z"/>
			<path class="st2" d="M254.9,78.8h1.3v1.1h0c0.1-0.2,0.2-0.4,0.3-0.5c0.1-0.2,0.3-0.3,0.5-0.4c0.2-0.1,0.4-0.2,0.7-0.3
				c0.2-0.1,0.5-0.1,0.8-0.1c0.4,0,0.8,0.1,1.2,0.2s0.7,0.4,1,0.7s0.5,0.7,0.7,1.2c0.2,0.5,0.3,1.1,0.3,1.7c0,0.8-0.1,1.5-0.2,2.1
				c-0.2,0.6-0.4,1-0.7,1.4c-0.3,0.4-0.7,0.6-1.1,0.8s-0.9,0.2-1.4,0.2c-0.3,0-0.5,0-0.7-0.1c-0.2-0.1-0.4-0.2-0.6-0.3
				c-0.2-0.1-0.3-0.2-0.5-0.4s-0.2-0.3-0.3-0.4h0v4h-1.3V78.8z M256.3,82.8c0,0.4,0,0.8,0.1,1.2c0.1,0.4,0.2,0.7,0.4,0.9
				c0.2,0.3,0.4,0.5,0.7,0.6c0.3,0.1,0.6,0.2,0.9,0.2c0.4,0,0.7-0.1,1-0.2c0.3-0.1,0.5-0.4,0.7-0.6s0.3-0.6,0.4-0.9
				c0.1-0.4,0.1-0.8,0.1-1.2c0-0.4,0-0.9-0.1-1.2s-0.2-0.7-0.4-1s-0.4-0.5-0.7-0.6c-0.3-0.1-0.6-0.2-1-0.2c-0.4,0-0.7,0.1-0.9,0.2
				c-0.3,0.1-0.5,0.4-0.7,0.6c-0.2,0.3-0.3,0.6-0.4,1S256.3,82.3,256.3,82.8z"/>
			<path class="st2" d="M263.7,81.2c0-0.5,0.1-0.9,0.3-1.2c0.2-0.3,0.4-0.6,0.7-0.8s0.6-0.4,1-0.4c0.4-0.1,0.8-0.1,1.3-0.1
				c0.4,0,0.8,0,1.1,0.1c0.4,0.1,0.7,0.2,1,0.4c0.3,0.2,0.5,0.4,0.7,0.7c0.2,0.3,0.3,0.6,0.3,1v4.6c0,0.1,0,0.2,0.1,0.3
				s0.2,0.1,0.3,0.1c0.1,0,0.1,0,0.2,0c0.1,0,0.1,0,0.2,0v0.9c-0.1,0-0.2,0.1-0.3,0.1c-0.1,0-0.2,0-0.4,0c-0.2,0-0.4,0-0.6-0.1
				c-0.2,0-0.3-0.1-0.4-0.2c-0.1-0.1-0.2-0.2-0.3-0.4c-0.1-0.1-0.1-0.3-0.1-0.5c-0.2,0.2-0.3,0.3-0.5,0.5c-0.2,0.2-0.4,0.3-0.6,0.4
				s-0.5,0.2-0.8,0.3c-0.3,0.1-0.6,0.1-1,0.1c-0.3,0-0.6,0-0.9-0.1c-0.3-0.1-0.5-0.2-0.8-0.4c-0.2-0.2-0.4-0.4-0.5-0.7
				c-0.1-0.3-0.2-0.6-0.2-1c0-0.4,0.1-0.8,0.2-1.1s0.3-0.5,0.5-0.7c0.2-0.2,0.5-0.4,0.8-0.5s0.6-0.2,0.9-0.2l2.2-0.3
				c0.2,0,0.4-0.1,0.5-0.2c0.1-0.1,0.2-0.4,0.2-0.7c0-0.5-0.2-0.8-0.5-1c-0.3-0.2-0.8-0.3-1.3-0.3c-0.6,0-1,0.1-1.3,0.4
				c-0.3,0.3-0.5,0.6-0.5,1.1H263.7z M268.6,82.7c-0.1,0.1-0.2,0.1-0.4,0.2c-0.2,0.1-0.3,0.1-0.5,0.1c-0.2,0-0.4,0.1-0.6,0.1
				c-0.2,0-0.4,0.1-0.6,0.1c-0.2,0-0.5,0.1-0.7,0.1s-0.4,0.1-0.5,0.2s-0.3,0.2-0.4,0.4c-0.1,0.1-0.1,0.3-0.1,0.5
				c0,0.2,0,0.4,0.1,0.6c0.1,0.2,0.2,0.3,0.3,0.4c0.1,0.1,0.3,0.2,0.5,0.3s0.4,0.1,0.6,0.1c0.1,0,0.3,0,0.5,0s0.3-0.1,0.5-0.1
				s0.4-0.1,0.5-0.2c0.2-0.1,0.3-0.2,0.5-0.4s0.2-0.3,0.3-0.5s0.1-0.4,0.1-0.6V82.7z"/>
			<path class="st2" d="M272.4,78.8h1.3V82h3.7v-3.2h1.4v7.8h-1.4v-3.5h-3.7v3.5h-1.3V78.8z"/>
			<path class="st2" d="M281.2,78.8h1.3v6h0l3.9-6h1.5v7.8h-1.4v-6h0l-3.8,6h-1.5V78.8z"/>
			<path class="st2" d="M290.3,78.8h1.3v6.7h3.7v-6.7h1.4v6.7h1v3.1h-1.3v-1.9h-6.1V78.8z"/>
			<path class="st2" d="M299.2,81.2c0-0.5,0.1-0.9,0.3-1.2c0.2-0.3,0.4-0.6,0.7-0.8s0.6-0.4,1-0.4c0.4-0.1,0.8-0.1,1.3-0.1
				c0.4,0,0.8,0,1.1,0.1c0.4,0.1,0.7,0.2,1,0.4c0.3,0.2,0.5,0.4,0.7,0.7c0.2,0.3,0.3,0.6,0.3,1v4.6c0,0.1,0,0.2,0.1,0.3
				s0.2,0.1,0.3,0.1c0.1,0,0.1,0,0.2,0c0.1,0,0.1,0,0.2,0v0.9c-0.1,0-0.2,0.1-0.3,0.1c-0.1,0-0.2,0-0.4,0c-0.2,0-0.4,0-0.6-0.1
				c-0.2,0-0.3-0.1-0.4-0.2c-0.1-0.1-0.2-0.2-0.3-0.4c-0.1-0.1-0.1-0.3-0.1-0.5c-0.2,0.2-0.3,0.3-0.5,0.5c-0.2,0.2-0.4,0.3-0.6,0.4
				s-0.5,0.2-0.8,0.3c-0.3,0.1-0.6,0.1-1,0.1c-0.3,0-0.6,0-0.9-0.1c-0.3-0.1-0.5-0.2-0.8-0.4c-0.2-0.2-0.4-0.4-0.5-0.7
				c-0.1-0.3-0.2-0.6-0.2-1c0-0.4,0.1-0.8,0.2-1.1s0.3-0.5,0.5-0.7c0.2-0.2,0.5-0.4,0.8-0.5s0.6-0.2,0.9-0.2l2.2-0.3
				c0.2,0,0.4-0.1,0.5-0.2c0.1-0.1,0.2-0.4,0.2-0.7c0-0.5-0.2-0.8-0.5-1c-0.3-0.2-0.8-0.3-1.3-0.3c-0.6,0-1,0.1-1.3,0.4
				c-0.3,0.3-0.5,0.6-0.5,1.1H299.2z M304.1,82.7c-0.1,0.1-0.2,0.1-0.4,0.2c-0.2,0.1-0.3,0.1-0.5,0.1c-0.2,0-0.4,0.1-0.6,0.1
				c-0.2,0-0.4,0.1-0.6,0.1c-0.2,0-0.5,0.1-0.7,0.1s-0.4,0.1-0.5,0.2s-0.3,0.2-0.4,0.4c-0.1,0.1-0.1,0.3-0.1,0.5
				c0,0.2,0,0.4,0.1,0.6c0.1,0.2,0.2,0.3,0.3,0.4c0.1,0.1,0.3,0.2,0.5,0.3s0.4,0.1,0.6,0.1c0.1,0,0.3,0,0.5,0s0.3-0.1,0.5-0.1
				s0.4-0.1,0.5-0.2c0.2-0.1,0.3-0.2,0.5-0.4s0.2-0.3,0.3-0.5s0.1-0.4,0.1-0.6V82.7z"/>
		</g>
	</g>
	<g>
		<path class="st2" d="M183.4,279.1c0.1,0,0.1,0.1,0.2,0.1s0.2,0.1,0.3,0.1c0.1,0,0.2,0.1,0.3,0.1c0.1,0,0.2,0,0.3,0
			c0.2,0,0.4,0,0.6-0.1c0.2-0.1,0.3-0.1,0.4-0.2c0.1-0.1,0.2-0.2,0.3-0.3c0.1-0.1,0.1-0.3,0.2-0.4l-4.4-8.6h1.7l3.6,7.1l2.7-7.1h1.6
			l-3.4,8c-0.2,0.5-0.5,1-0.7,1.4c-0.2,0.4-0.4,0.7-0.7,0.9c-0.2,0.2-0.5,0.4-0.8,0.5c-0.3,0.1-0.7,0.2-1.1,0.2
			c-0.2,0-0.4,0-0.6-0.1s-0.4-0.1-0.5-0.2L183.4,279.1z"/>
		<path class="st2" d="M198.7,277.8c0,0.2-0.1,0.4-0.1,0.6c-0.1,0.2-0.1,0.4-0.2,0.7c-0.1,0.2-0.2,0.4-0.4,0.6
			c-0.2,0.2-0.4,0.4-0.6,0.5c-0.2,0.2-0.5,0.3-0.9,0.4s-0.7,0.1-1.1,0.1c-0.2,0-0.5,0-0.7-0.1c-0.3-0.1-0.5-0.2-0.7-0.3
			c-0.2-0.1-0.5-0.3-0.7-0.5c-0.2-0.2-0.4-0.5-0.6-0.8c-0.2-0.3-0.3-0.7-0.4-1.1s-0.1-0.9-0.1-1.4c0-0.7,0.1-1.2,0.3-1.8
			c0.2-0.5,0.4-1,0.7-1.3c0.3-0.4,0.7-0.6,1.1-0.8c0.4-0.2,0.8-0.3,1.3-0.3c0.4,0,0.8,0,1.1,0.1c0.3,0.1,0.6,0.2,0.8,0.4
			s0.4,0.3,0.6,0.5c0.2,0.2,0.3,0.4,0.4,0.6c0.1,0.2,0.2,0.4,0.2,0.6c0.1,0.2,0.1,0.4,0.1,0.6h-1.3c-0.1-0.5-0.3-0.9-0.6-1.3
			c-0.3-0.3-0.7-0.5-1.3-0.5c-0.4,0-0.7,0.1-1,0.2c-0.3,0.2-0.5,0.4-0.7,0.6c-0.2,0.3-0.3,0.6-0.4,1c-0.1,0.4-0.1,0.8-0.1,1.3
			c0,0.5,0,1,0.1,1.3c0.1,0.4,0.2,0.7,0.4,0.9c0.2,0.2,0.4,0.4,0.7,0.5c0.3,0.1,0.6,0.2,0.9,0.2c0.2,0,0.5,0,0.7-0.1
			c0.2-0.1,0.4-0.2,0.6-0.4c0.2-0.2,0.3-0.4,0.4-0.6c0.1-0.2,0.2-0.5,0.2-0.8H198.7z"/>
	</g>
	<g>
		<path class="st2" d="M182.3,115.1h3.9c0.4,0,0.8,0,1.1,0c0.3,0,0.6,0.1,0.9,0.1c0.3,0.1,0.5,0.2,0.7,0.3c0.2,0.1,0.4,0.3,0.6,0.5
			c0.2,0.2,0.3,0.5,0.4,0.7c0.1,0.3,0.2,0.6,0.2,0.9c0,0.2,0,0.4-0.1,0.6s-0.1,0.4-0.2,0.6s-0.3,0.4-0.4,0.6
			c-0.2,0.2-0.4,0.3-0.7,0.4c0.2,0.1,0.4,0.2,0.7,0.3s0.4,0.3,0.6,0.5c0.2,0.2,0.3,0.5,0.5,0.8c0.1,0.3,0.2,0.6,0.2,1.1
			c0,0.2,0,0.5-0.1,0.7c-0.1,0.3-0.1,0.5-0.3,0.7c-0.1,0.2-0.3,0.5-0.5,0.7s-0.4,0.4-0.7,0.5c-0.3,0.2-0.6,0.3-1,0.4
			c-0.4,0.1-0.8,0.1-1.2,0.1h-4.5V115.1z M186.4,119.7c0.5,0,0.9,0,1.1-0.1c0.3-0.1,0.5-0.2,0.7-0.4c0.2-0.2,0.3-0.3,0.3-0.5
			s0.1-0.4,0.1-0.7c0-0.3,0-0.5-0.1-0.7c-0.1-0.2-0.2-0.4-0.4-0.5s-0.4-0.2-0.7-0.3c-0.3-0.1-0.6-0.1-1-0.1h-2.7v3.3H186.4z
			 M186.6,124.6c0.5,0,0.9,0,1.2-0.1c0.3-0.1,0.6-0.2,0.8-0.4c0.2-0.2,0.3-0.4,0.4-0.6s0.1-0.5,0.1-0.8s0-0.5-0.1-0.8
			s-0.2-0.4-0.4-0.6c-0.2-0.2-0.5-0.3-0.8-0.4c-0.3-0.1-0.7-0.1-1.2-0.1h-2.9v3.8H186.6z"/>
		<path class="st2" d="M199.2,123.3c-0.1,0.3-0.2,0.7-0.4,1s-0.4,0.6-0.7,0.9s-0.6,0.5-1,0.6c-0.4,0.2-0.8,0.2-1.3,0.2
			c-0.5,0-1-0.1-1.5-0.3c-0.4-0.2-0.8-0.4-1.2-0.8c-0.3-0.3-0.6-0.8-0.8-1.3s-0.3-1.1-0.3-1.9c0-0.5,0.1-0.9,0.2-1.3
			c0.1-0.4,0.2-0.7,0.4-1c0.2-0.3,0.4-0.6,0.6-0.8c0.2-0.2,0.5-0.4,0.7-0.5c0.3-0.1,0.5-0.3,0.8-0.3s0.5-0.1,0.8-0.1
			c0.5,0,1,0.1,1.5,0.2s0.8,0.4,1.1,0.7c0.3,0.3,0.6,0.7,0.7,1.2c0.2,0.5,0.3,1.1,0.3,1.7v0.7h-5.7c0,0.4,0.1,0.7,0.2,1
			s0.2,0.6,0.4,0.8s0.4,0.4,0.7,0.5c0.3,0.1,0.6,0.2,0.9,0.2c0.3,0,0.6,0,0.9-0.1s0.4-0.2,0.6-0.4s0.3-0.3,0.4-0.5
			c0.1-0.2,0.2-0.4,0.3-0.5H199.2z M197.9,121.3c0-0.4-0.1-0.7-0.2-1c-0.1-0.3-0.3-0.5-0.4-0.8c-0.2-0.2-0.4-0.4-0.7-0.5
			c-0.3-0.1-0.6-0.2-0.9-0.2c-0.3,0-0.6,0.1-0.8,0.2s-0.5,0.3-0.7,0.5c-0.2,0.2-0.4,0.5-0.5,0.8c-0.1,0.3-0.2,0.6-0.2,1H197.9z"/>
		<path class="st2" d="M201.2,118h1.3v1.1h0c0.1-0.2,0.2-0.4,0.3-0.5c0.1-0.2,0.3-0.3,0.5-0.4c0.2-0.1,0.4-0.2,0.7-0.3
			c0.2-0.1,0.5-0.1,0.8-0.1c0.4,0,0.8,0.1,1.2,0.2s0.7,0.4,1,0.7s0.5,0.7,0.7,1.2c0.2,0.5,0.3,1.1,0.3,1.7c0,0.8-0.1,1.5-0.2,2.1
			c-0.2,0.6-0.4,1-0.7,1.4c-0.3,0.4-0.7,0.6-1.1,0.8s-0.9,0.2-1.4,0.2c-0.3,0-0.5,0-0.7-0.1c-0.2-0.1-0.4-0.2-0.6-0.3
			c-0.2-0.1-0.3-0.2-0.5-0.4s-0.2-0.3-0.3-0.4h0v4h-1.3V118z M202.5,122c0,0.4,0,0.8,0.1,1.2c0.1,0.4,0.2,0.7,0.4,0.9
			c0.2,0.3,0.4,0.5,0.7,0.6c0.3,0.1,0.6,0.2,0.9,0.2c0.4,0,0.7-0.1,1-0.2c0.3-0.1,0.5-0.4,0.7-0.6s0.3-0.6,0.4-0.9
			c0.1-0.4,0.1-0.8,0.1-1.2c0-0.4,0-0.9-0.1-1.2s-0.2-0.7-0.4-1s-0.4-0.5-0.7-0.6c-0.3-0.1-0.6-0.2-1-0.2c-0.4,0-0.7,0.1-0.9,0.2
			c-0.3,0.1-0.5,0.4-0.7,0.6c-0.2,0.3-0.3,0.6-0.4,1S202.5,121.5,202.5,122z"/>
		<path class="st2" d="M212.6,122.9l-1.8,2.9h-1.7l2.7-4l-2.6-3.8h1.7l1.9,2.7l1.8-2.7h1.6l-2.7,3.8l2.8,4h-1.7L212.6,122.9z"/>
		<path class="st2" d="M217.8,118h1.3v3.2h3.7V118h1.4v7.8h-1.4v-3.5h-3.7v3.5h-1.3V118z"/>
		<path class="st2" d="M226.6,118h1.3v6h0l3.9-6h1.5v7.8H232v-6h0l-3.8,6h-1.5V118z"/>
		<path class="st2" d="M235.7,118h1.3v6h0l3.9-6h1.5v7.8h-1.4v-6h0l-3.8,6h-1.5V118z M237.8,114.9c0.1,0.3,0.2,0.6,0.4,0.7
			c0.2,0.2,0.5,0.3,0.9,0.3c0.4,0,0.7-0.1,0.9-0.3c0.2-0.2,0.3-0.4,0.4-0.8h1.3c0,0.3-0.1,0.6-0.2,0.8c-0.1,0.2-0.3,0.4-0.5,0.6
			c-0.2,0.2-0.5,0.3-0.8,0.4c-0.3,0.1-0.7,0.1-1,0.1s-0.7,0-1-0.1c-0.3-0.1-0.6-0.2-0.8-0.4c-0.2-0.2-0.4-0.4-0.5-0.6
			c-0.1-0.2-0.2-0.5-0.2-0.8H237.8z"/>
		<path class="st2" d="M249.4,118h1.3v3.8l4-3.8h1.8l-3.7,3.5l3.7,4.4h-1.7l-3.1-3.6l-1,0.8v2.7h-1.3V118z"/>
		<path class="st2" d="M258,118h3.3c1,0,1.7,0.2,2.2,0.5c0.5,0.4,0.7,0.9,0.7,1.6c0,0.4-0.1,0.7-0.3,0.9s-0.4,0.5-0.7,0.7
			c0.4,0.2,0.7,0.4,1,0.7s0.4,0.7,0.4,1.1c0,0.4-0.1,0.7-0.2,1s-0.3,0.5-0.6,0.7c-0.2,0.2-0.6,0.4-0.9,0.5c-0.4,0.1-0.8,0.2-1.4,0.2
			H258V118z M259.3,121.3h2c0.5,0,0.8-0.1,1.1-0.3s0.4-0.5,0.4-0.8c0-0.2,0-0.4-0.1-0.5c-0.1-0.1-0.2-0.3-0.3-0.3s-0.3-0.1-0.4-0.2
			c-0.2,0-0.3-0.1-0.5-0.1h-2.2V121.3z M259.3,124.8h2.1c0.4,0,0.7,0,0.9-0.1c0.2-0.1,0.4-0.1,0.6-0.2s0.2-0.2,0.3-0.4
			s0.1-0.3,0.1-0.5s0-0.4-0.1-0.5c-0.1-0.2-0.2-0.3-0.3-0.4c-0.1-0.1-0.3-0.2-0.6-0.2c-0.2-0.1-0.5-0.1-0.9-0.1h-2.1V124.8z"/>
		<path class="st2" d="M266.5,120.3c0-0.5,0.1-0.9,0.3-1.2c0.2-0.3,0.4-0.6,0.7-0.8s0.6-0.4,1-0.4c0.4-0.1,0.8-0.1,1.3-0.1
			c0.4,0,0.8,0,1.1,0.1c0.4,0.1,0.7,0.2,1,0.4c0.3,0.2,0.5,0.4,0.7,0.7c0.2,0.3,0.3,0.6,0.3,1v4.6c0,0.1,0,0.2,0.1,0.3
			s0.2,0.1,0.3,0.1c0.1,0,0.1,0,0.2,0c0.1,0,0.1,0,0.2,0v0.9c-0.1,0-0.2,0.1-0.3,0.1c-0.1,0-0.2,0-0.4,0c-0.2,0-0.4,0-0.6-0.1
			c-0.2,0-0.3-0.1-0.4-0.2c-0.1-0.1-0.2-0.2-0.3-0.4c-0.1-0.1-0.1-0.3-0.1-0.5c-0.2,0.2-0.3,0.3-0.5,0.5c-0.2,0.2-0.4,0.3-0.6,0.4
			s-0.5,0.2-0.8,0.3c-0.3,0.1-0.6,0.1-1,0.1c-0.3,0-0.6,0-0.9-0.1c-0.3-0.1-0.5-0.2-0.8-0.4c-0.2-0.2-0.4-0.4-0.5-0.7
			c-0.1-0.3-0.2-0.6-0.2-1c0-0.4,0.1-0.8,0.2-1.1s0.3-0.5,0.5-0.7c0.2-0.2,0.5-0.4,0.8-0.5s0.6-0.2,0.9-0.2l2.2-0.3
			c0.2,0,0.4-0.1,0.5-0.2c0.1-0.1,0.2-0.4,0.2-0.7c0-0.5-0.2-0.8-0.5-1c-0.3-0.2-0.8-0.3-1.3-0.3c-0.6,0-1,0.1-1.3,0.4
			c-0.3,0.3-0.5,0.6-0.5,1.1H266.5z M271.4,121.8c-0.1,0.1-0.2,0.1-0.4,0.2c-0.2,0.1-0.3,0.1-0.5,0.1c-0.2,0-0.4,0.1-0.6,0.1
			c-0.2,0-0.4,0.1-0.6,0.1c-0.2,0-0.5,0.1-0.7,0.1s-0.4,0.1-0.5,0.2s-0.3,0.2-0.4,0.4c-0.1,0.1-0.1,0.3-0.1,0.5c0,0.2,0,0.4,0.1,0.6
			c0.1,0.2,0.2,0.3,0.3,0.4c0.1,0.1,0.3,0.2,0.5,0.3s0.4,0.1,0.6,0.1c0.1,0,0.3,0,0.5,0s0.3-0.1,0.5-0.1s0.4-0.1,0.5-0.2
			c0.2-0.1,0.3-0.2,0.5-0.4s0.2-0.3,0.3-0.5s0.1-0.4,0.1-0.6V121.8z"/>
		<path class="st2" d="M275.2,118h1.3v1.1h0c0.1-0.2,0.2-0.4,0.3-0.5c0.1-0.2,0.3-0.3,0.5-0.4c0.2-0.1,0.4-0.2,0.7-0.3
			c0.2-0.1,0.5-0.1,0.8-0.1c0.4,0,0.8,0.1,1.2,0.2s0.7,0.4,1,0.7s0.5,0.7,0.7,1.2c0.2,0.5,0.3,1.1,0.3,1.7c0,0.8-0.1,1.5-0.2,2.1
			c-0.2,0.6-0.4,1-0.7,1.4c-0.3,0.4-0.7,0.6-1.1,0.8s-0.9,0.2-1.4,0.2c-0.3,0-0.5,0-0.7-0.1c-0.2-0.1-0.4-0.2-0.6-0.3
			c-0.2-0.1-0.3-0.2-0.5-0.4s-0.2-0.3-0.3-0.4h0v4h-1.3V118z M276.5,122c0,0.4,0,0.8,0.1,1.2c0.1,0.4,0.2,0.7,0.4,0.9
			c0.2,0.3,0.4,0.5,0.7,0.6c0.3,0.1,0.6,0.2,0.9,0.2c0.4,0,0.7-0.1,1-0.2c0.3-0.1,0.5-0.4,0.7-0.6s0.3-0.6,0.4-0.9
			c0.1-0.4,0.1-0.8,0.1-1.2c0-0.4,0-0.9-0.1-1.2s-0.2-0.7-0.4-1s-0.4-0.5-0.7-0.6c-0.3-0.1-0.6-0.2-1-0.2c-0.4,0-0.7,0.1-0.9,0.2
			c-0.3,0.1-0.5,0.4-0.7,0.6c-0.2,0.3-0.3,0.6-0.4,1S276.5,121.5,276.5,122z"/>
		<path class="st2" d="M286.1,119.2h-2.7V118h6.8v1.2h-2.7v6.7h-1.3V119.2z"/>
		<path class="st2" d="M291.9,118h1.3v6h0l3.9-6h1.5v7.8h-1.4v-6h0l-3.8,6h-1.5V118z"/>
		<path class="st2" d="M306.3,119.2h-3l-0.1,1.9c0,1-0.1,1.7-0.2,2.4c-0.1,0.6-0.3,1.1-0.5,1.5c-0.2,0.4-0.4,0.7-0.7,0.8
			s-0.6,0.2-1,0.2c-0.1,0-0.3,0-0.4-0.1c-0.1,0-0.2-0.1-0.2-0.1v-1.2c0.2,0.1,0.4,0.1,0.5,0.1c0.1,0,0.2,0,0.3-0.1
			c0.1,0,0.2-0.1,0.3-0.2c0.1-0.1,0.2-0.2,0.2-0.4s0.1-0.4,0.2-0.7c0.1-0.3,0.1-0.6,0.1-1c0-0.4,0.1-0.9,0.1-1.5l0.1-2.9h5.6v7.8
			h-1.3V119.2z"/>
		<path class="st2" d="M310,118h1.3v3h2.2c0.4,0,0.8,0.1,1.2,0.2c0.3,0.1,0.6,0.3,0.9,0.5c0.2,0.2,0.4,0.5,0.5,0.8
			c0.1,0.3,0.2,0.6,0.2,1c0,0.4-0.1,0.7-0.2,1c-0.1,0.3-0.3,0.6-0.5,0.8c-0.2,0.2-0.5,0.4-0.9,0.5c-0.3,0.1-0.7,0.2-1.2,0.2H310V118
			z M311.3,124.8h1.9c0.2,0,0.5,0,0.7-0.1c0.2,0,0.4-0.1,0.5-0.2c0.1-0.1,0.3-0.3,0.3-0.4s0.1-0.4,0.1-0.6c0-0.2,0-0.5-0.1-0.6
			c-0.1-0.2-0.2-0.3-0.4-0.4c-0.2-0.1-0.3-0.2-0.6-0.2c-0.2-0.1-0.5-0.1-0.7-0.1h-1.8V124.8z"/>
	</g>
	<g>
		<path class="st2" d="M182.3,177.6h2.1l3,9.1h0l3-9.1h2.1v10.8h-1.3v-9.1h0l-3,9.1h-1.4l-3-9.1h0v9.1h-1.3V177.6z"/>
		<path class="st2" d="M201.7,185.8c-0.1,0.3-0.2,0.7-0.4,1s-0.4,0.6-0.7,0.9s-0.6,0.5-1,0.6c-0.4,0.2-0.8,0.2-1.3,0.2
			c-0.5,0-1-0.1-1.5-0.3c-0.4-0.2-0.8-0.4-1.2-0.8c-0.3-0.3-0.6-0.8-0.8-1.3s-0.3-1.1-0.3-1.9c0-0.5,0.1-0.9,0.2-1.3
			c0.1-0.4,0.2-0.7,0.4-1c0.2-0.3,0.4-0.6,0.6-0.8c0.2-0.2,0.5-0.4,0.7-0.5c0.3-0.1,0.5-0.3,0.8-0.3s0.5-0.1,0.8-0.1
			c0.5,0,1,0.1,1.5,0.2s0.8,0.4,1.1,0.7c0.3,0.3,0.6,0.7,0.7,1.2c0.2,0.5,0.3,1.1,0.3,1.7v0.7h-5.7c0,0.4,0.1,0.7,0.2,1
			s0.2,0.6,0.4,0.8s0.4,0.4,0.7,0.5c0.3,0.1,0.6,0.2,0.9,0.2c0.3,0,0.6,0,0.9-0.1s0.4-0.2,0.6-0.4s0.3-0.3,0.4-0.5
			c0.1-0.2,0.2-0.4,0.3-0.5H201.7z M200.4,183.8c0-0.4-0.1-0.7-0.2-1c-0.1-0.3-0.3-0.5-0.4-0.8c-0.2-0.2-0.4-0.4-0.7-0.5
			c-0.3-0.1-0.6-0.2-0.9-0.2c-0.3,0-0.6,0.1-0.8,0.2s-0.5,0.3-0.7,0.5c-0.2,0.2-0.4,0.5-0.5,0.8c-0.1,0.3-0.2,0.6-0.2,1H200.4z"/>
		<path class="st2" d="M210.3,188.3h-6.1v1.9H203v-3.1h1c0.2-0.5,0.4-1.1,0.5-1.6c0.1-0.5,0.2-1.1,0.3-1.7s0.1-1.1,0.1-1.7
			c0-0.6,0-1.1,0-1.7h5.5v6.7h1.1v3.1h-1.3V188.3z M209.1,187.2v-5.5h-2.8c0,0.4-0.1,0.9-0.1,1.4c0,0.5-0.1,0.9-0.1,1.4
			c-0.1,0.5-0.1,0.9-0.2,1.4c-0.1,0.5-0.2,0.9-0.4,1.3H209.1z"/>
		<path class="st2" d="M213.2,180.5h1.3v6h0l3.9-6h1.5v7.8h-1.4v-6h0l-3.8,6h-1.5V180.5z"/>
		<path class="st2" d="M222.3,182.8c0-0.5,0.1-0.9,0.3-1.2c0.2-0.3,0.4-0.6,0.7-0.8s0.6-0.4,1-0.4c0.4-0.1,0.8-0.1,1.3-0.1
			c0.4,0,0.8,0,1.1,0.1c0.4,0.1,0.7,0.2,1,0.4c0.3,0.2,0.5,0.4,0.7,0.7c0.2,0.3,0.3,0.6,0.3,1v4.6c0,0.1,0,0.2,0.1,0.3
			s0.2,0.1,0.3,0.1c0.1,0,0.1,0,0.2,0c0.1,0,0.1,0,0.2,0v0.9c-0.1,0-0.2,0.1-0.3,0.1c-0.1,0-0.2,0-0.4,0c-0.2,0-0.4,0-0.6-0.1
			c-0.2,0-0.3-0.1-0.4-0.2c-0.1-0.1-0.2-0.2-0.3-0.4c-0.1-0.1-0.1-0.3-0.1-0.5c-0.2,0.2-0.3,0.3-0.5,0.5c-0.2,0.2-0.4,0.3-0.6,0.4
			s-0.5,0.2-0.8,0.3c-0.3,0.1-0.6,0.1-1,0.1c-0.3,0-0.6,0-0.9-0.1c-0.3-0.1-0.5-0.2-0.8-0.4c-0.2-0.2-0.4-0.4-0.5-0.7
			c-0.1-0.3-0.2-0.6-0.2-1c0-0.4,0.1-0.8,0.2-1.1s0.3-0.5,0.5-0.7c0.2-0.2,0.5-0.4,0.8-0.5s0.6-0.2,0.9-0.2l2.2-0.3
			c0.2,0,0.4-0.1,0.5-0.2c0.1-0.1,0.2-0.4,0.2-0.7c0-0.5-0.2-0.8-0.5-1c-0.3-0.2-0.8-0.3-1.3-0.3c-0.6,0-1,0.1-1.3,0.4
			c-0.3,0.3-0.5,0.6-0.5,1.1H222.3z M227.2,184.3c-0.1,0.1-0.2,0.1-0.4,0.2c-0.2,0.1-0.3,0.1-0.5,0.1c-0.2,0-0.4,0.1-0.6,0.1
			c-0.2,0-0.4,0.1-0.6,0.1c-0.2,0-0.5,0.1-0.7,0.1s-0.4,0.1-0.5,0.2s-0.3,0.2-0.4,0.4c-0.1,0.1-0.1,0.3-0.1,0.5c0,0.2,0,0.4,0.1,0.6
			c0.1,0.2,0.2,0.3,0.3,0.4c0.1,0.1,0.3,0.2,0.5,0.3s0.4,0.1,0.6,0.1c0.1,0,0.3,0,0.5,0s0.3-0.1,0.5-0.1s0.4-0.1,0.5-0.2
			c0.2-0.1,0.3-0.2,0.5-0.4s0.2-0.3,0.3-0.5s0.1-0.4,0.1-0.6V184.3z"/>
		<path class="st2" d="M231,180.5h1.3v3.2h3.7v-3.2h1.4v7.8h-1.4v-3.5h-3.7v3.5H231V180.5z"/>
		<path class="st2" d="M239.8,182.8c0-0.5,0.1-0.9,0.3-1.2c0.2-0.3,0.4-0.6,0.7-0.8s0.6-0.4,1-0.4c0.4-0.1,0.8-0.1,1.3-0.1
			c0.4,0,0.8,0,1.1,0.1c0.4,0.1,0.7,0.2,1,0.4c0.3,0.2,0.5,0.4,0.7,0.7c0.2,0.3,0.3,0.6,0.3,1v4.6c0,0.1,0,0.2,0.1,0.3
			s0.2,0.1,0.3,0.1c0.1,0,0.1,0,0.2,0c0.1,0,0.1,0,0.2,0v0.9c-0.1,0-0.2,0.1-0.3,0.1c-0.1,0-0.2,0-0.4,0c-0.2,0-0.4,0-0.6-0.1
			c-0.2,0-0.3-0.1-0.4-0.2c-0.1-0.1-0.2-0.2-0.3-0.4c-0.1-0.1-0.1-0.3-0.1-0.5c-0.2,0.2-0.3,0.3-0.5,0.5c-0.2,0.2-0.4,0.3-0.6,0.4
			s-0.5,0.2-0.8,0.3c-0.3,0.1-0.6,0.1-1,0.1c-0.3,0-0.6,0-0.9-0.1c-0.3-0.1-0.5-0.2-0.8-0.4c-0.2-0.2-0.4-0.4-0.5-0.7
			c-0.1-0.3-0.2-0.6-0.2-1c0-0.4,0.1-0.8,0.2-1.1s0.3-0.5,0.5-0.7c0.2-0.2,0.5-0.4,0.8-0.5s0.6-0.2,0.9-0.2l2.2-0.3
			c0.2,0,0.4-0.1,0.5-0.2c0.1-0.1,0.2-0.4,0.2-0.7c0-0.5-0.2-0.8-0.5-1c-0.3-0.2-0.8-0.3-1.3-0.3c-0.6,0-1,0.1-1.3,0.4
			c-0.3,0.3-0.5,0.6-0.5,1.1H239.8z M244.6,184.3c-0.1,0.1-0.2,0.1-0.4,0.2c-0.2,0.1-0.3,0.1-0.5,0.1c-0.2,0-0.4,0.1-0.6,0.1
			c-0.2,0-0.4,0.1-0.6,0.1c-0.2,0-0.5,0.1-0.7,0.1s-0.4,0.1-0.5,0.2s-0.3,0.2-0.4,0.4c-0.1,0.1-0.1,0.3-0.1,0.5c0,0.2,0,0.4,0.1,0.6
			c0.1,0.2,0.2,0.3,0.3,0.4c0.1,0.1,0.3,0.2,0.5,0.3s0.4,0.1,0.6,0.1c0.1,0,0.3,0,0.5,0s0.3-0.1,0.5-0.1s0.4-0.1,0.5-0.2
			c0.2-0.1,0.3-0.2,0.5-0.4s0.2-0.3,0.3-0.5s0.1-0.4,0.1-0.6V184.3z"/>
	</g>
	<g>
		<path class="st2" d="M182.3,241.2h1.4v4.4h5.7v-4.4h1.4V252h-1.4v-5.1h-5.7v5.1h-1.4V241.2z"/>
		<path class="st2" d="M193.4,244.2h1.3v6h0l3.9-6h1.5v7.8h-1.4v-6h0l-3.8,6h-1.5V244.2z"/>
		<path class="st2" d="M208,247.4h0.7l2.6-3.2h1.6l-3.1,3.7l3.2,4.1h-1.7l-2.7-3.6H208v3.6h-1.3v-3.6H206l-2.7,3.6h-1.7l3.2-4.1
			l-3.1-3.7h1.6l2.5,3.2h0.7v-3.2h1.3V247.4z"/>
		<path class="st2" d="M214.6,244.2h1.3v3.2h3.7v-3.2h1.4v7.8h-1.4v-3.5h-3.7v3.5h-1.3V244.2z"/>
		<path class="st2" d="M223.3,244.2h1.3v6h0l3.9-6h1.5v7.8h-1.4v-6h0l-3.8,6h-1.5V244.2z"/>
		<path class="st2" d="M232.4,244.2h1.3v6h0l3.9-6h1.5v7.8h-1.4v-6h0l-3.8,6h-1.5V244.2z M234.5,241.1c0.1,0.3,0.2,0.6,0.4,0.7
			c0.2,0.2,0.5,0.3,0.9,0.3c0.4,0,0.7-0.1,0.9-0.3c0.2-0.2,0.3-0.4,0.4-0.8h1.3c0,0.3-0.1,0.6-0.2,0.8c-0.1,0.2-0.3,0.4-0.5,0.6
			c-0.2,0.2-0.5,0.3-0.8,0.4c-0.3,0.1-0.7,0.1-1,0.1s-0.7,0-1-0.1c-0.3-0.1-0.6-0.2-0.8-0.4c-0.2-0.2-0.4-0.4-0.5-0.6
			c-0.1-0.2-0.2-0.5-0.2-0.8H234.5z"/>
		<path class="st2" d="M246.1,244.2h1.3v3.8l4-3.8h1.8l-3.7,3.5l3.7,4.4h-1.7l-3.1-3.6l-1,0.8v2.7h-1.3V244.2z"/>
		<path class="st2" d="M254.7,244.2h3.3c1,0,1.7,0.2,2.2,0.5c0.5,0.4,0.7,0.9,0.7,1.6c0,0.4-0.1,0.7-0.3,0.9
			c-0.2,0.2-0.4,0.5-0.7,0.7c0.4,0.2,0.7,0.4,1,0.7s0.4,0.7,0.4,1.1c0,0.4-0.1,0.7-0.2,1s-0.3,0.5-0.6,0.7c-0.2,0.2-0.6,0.4-0.9,0.5
			c-0.4,0.1-0.8,0.2-1.4,0.2h-3.6V244.2z M256,247.5h2c0.5,0,0.8-0.1,1.1-0.3s0.4-0.5,0.4-0.8c0-0.2,0-0.4-0.1-0.5
			c-0.1-0.1-0.2-0.3-0.3-0.3s-0.3-0.2-0.4-0.2c-0.2,0-0.3-0.1-0.5-0.1H256V247.5z M256,250.9h2.1c0.4,0,0.7,0,0.9-0.1
			c0.2-0.1,0.4-0.1,0.6-0.2s0.2-0.2,0.3-0.4c0.1-0.2,0.1-0.3,0.1-0.5c0-0.2,0-0.4-0.1-0.5c-0.1-0.2-0.2-0.3-0.3-0.4
			c-0.1-0.1-0.3-0.2-0.6-0.2c-0.2-0.1-0.5-0.1-0.9-0.1H256V250.9z"/>
		<path class="st2" d="M263.2,246.5c0-0.5,0.1-0.9,0.3-1.2c0.2-0.3,0.4-0.6,0.7-0.8s0.6-0.4,1-0.4c0.4-0.1,0.8-0.1,1.3-0.1
			c0.4,0,0.8,0,1.1,0.1c0.4,0.1,0.7,0.2,1,0.4c0.3,0.2,0.5,0.4,0.7,0.7c0.2,0.3,0.3,0.6,0.3,1v4.6c0,0.1,0,0.2,0.1,0.3
			c0.1,0.1,0.2,0.1,0.3,0.1c0.1,0,0.1,0,0.2,0c0.1,0,0.1,0,0.2,0v0.9c-0.1,0-0.2,0.1-0.3,0.1c-0.1,0-0.2,0-0.4,0
			c-0.2,0-0.4,0-0.6-0.1c-0.2,0-0.3-0.1-0.4-0.2c-0.1-0.1-0.2-0.2-0.3-0.4c-0.1-0.1-0.1-0.3-0.1-0.5c-0.2,0.2-0.3,0.3-0.5,0.5
			c-0.2,0.2-0.4,0.3-0.6,0.4c-0.2,0.1-0.5,0.2-0.8,0.3c-0.3,0.1-0.6,0.1-1,0.1c-0.3,0-0.6,0-0.9-0.1c-0.3-0.1-0.5-0.2-0.8-0.4
			c-0.2-0.2-0.4-0.4-0.5-0.7c-0.1-0.3-0.2-0.6-0.2-1c0-0.4,0.1-0.8,0.2-1.1c0.1-0.3,0.3-0.5,0.5-0.7c0.2-0.2,0.5-0.3,0.8-0.5
			s0.6-0.2,0.9-0.2l2.2-0.3c0.2,0,0.4-0.1,0.5-0.2c0.1-0.1,0.2-0.4,0.2-0.7c0-0.5-0.2-0.8-0.5-1c-0.3-0.2-0.8-0.3-1.3-0.3
			c-0.6,0-1,0.1-1.3,0.4c-0.3,0.3-0.5,0.6-0.5,1.1H263.2z M268.1,248c-0.1,0.1-0.2,0.1-0.4,0.2c-0.2,0.1-0.3,0.1-0.5,0.1
			c-0.2,0-0.4,0.1-0.6,0.1c-0.2,0-0.4,0.1-0.6,0.1c-0.2,0-0.5,0.1-0.7,0.1c-0.2,0.1-0.4,0.1-0.5,0.2c-0.2,0.1-0.3,0.2-0.4,0.4
			c-0.1,0.1-0.1,0.3-0.1,0.5c0,0.2,0,0.4,0.1,0.6c0.1,0.2,0.2,0.3,0.3,0.4c0.1,0.1,0.3,0.2,0.5,0.3s0.4,0.1,0.6,0.1
			c0.1,0,0.3,0,0.5,0c0.2,0,0.3-0.1,0.5-0.1c0.2-0.1,0.4-0.1,0.5-0.2c0.2-0.1,0.3-0.2,0.5-0.4s0.2-0.3,0.3-0.5s0.1-0.4,0.1-0.6V248z
			"/>
		<path class="st2" d="M271.9,244.2h1.3v1.1h0c0.1-0.2,0.2-0.4,0.3-0.5c0.1-0.2,0.3-0.3,0.5-0.4c0.2-0.1,0.4-0.2,0.7-0.3
			c0.2-0.1,0.5-0.1,0.8-0.1c0.4,0,0.8,0.1,1.2,0.2c0.4,0.2,0.7,0.4,1,0.7s0.5,0.7,0.7,1.2c0.2,0.5,0.3,1.1,0.3,1.7
			c0,0.8-0.1,1.5-0.2,2.1c-0.2,0.6-0.4,1-0.7,1.4c-0.3,0.4-0.7,0.6-1.1,0.8s-0.9,0.2-1.4,0.2c-0.3,0-0.5,0-0.7-0.1
			c-0.2-0.1-0.4-0.2-0.6-0.3c-0.2-0.1-0.3-0.2-0.5-0.4c-0.1-0.1-0.2-0.3-0.3-0.4h0v4h-1.3V244.2z M273.2,248.1c0,0.4,0,0.8,0.1,1.2
			c0.1,0.4,0.2,0.7,0.4,0.9c0.2,0.3,0.4,0.5,0.7,0.6c0.3,0.1,0.6,0.2,0.9,0.2c0.4,0,0.7-0.1,1-0.2c0.3-0.1,0.5-0.4,0.7-0.6
			s0.3-0.6,0.4-0.9c0.1-0.4,0.1-0.8,0.1-1.2c0-0.4,0-0.9-0.1-1.2c-0.1-0.4-0.2-0.7-0.4-1s-0.4-0.5-0.7-0.6c-0.3-0.1-0.6-0.2-1-0.2
			c-0.4,0-0.7,0.1-0.9,0.2c-0.3,0.1-0.5,0.4-0.7,0.6c-0.2,0.3-0.3,0.6-0.4,1C273.3,247.3,273.2,247.7,273.2,248.1z"/>
		<path class="st2" d="M282.8,245.3h-2.7v-1.2h6.8v1.2h-2.7v6.7h-1.3V245.3z"/>
		<path class="st2" d="M288.6,244.2h1.3v6h0l3.9-6h1.5v7.8H294v-6h0l-3.8,6h-1.5V244.2z"/>
		<path class="st2" d="M303,245.3h-3l-0.1,1.9c0,1-0.1,1.7-0.2,2.4c-0.1,0.6-0.3,1.1-0.5,1.5c-0.2,0.4-0.4,0.7-0.7,0.8
			c-0.3,0.2-0.6,0.2-1,0.2c-0.1,0-0.3,0-0.4-0.1c-0.1,0-0.2-0.1-0.2-0.1v-1.2c0.2,0.1,0.4,0.1,0.5,0.1c0.1,0,0.2,0,0.3-0.1
			c0.1,0,0.2-0.1,0.3-0.2c0.1-0.1,0.2-0.2,0.2-0.4c0.1-0.2,0.1-0.4,0.2-0.7c0.1-0.3,0.1-0.6,0.1-1c0-0.4,0.1-0.9,0.1-1.5l0.1-2.9
			h5.6v7.8H303V245.3z"/>
		<path class="st2" d="M306.7,244.2h1.3v3h2.2c0.4,0,0.8,0.1,1.2,0.2c0.3,0.1,0.6,0.3,0.9,0.5c0.2,0.2,0.4,0.5,0.5,0.8
			c0.1,0.3,0.2,0.6,0.2,1c0,0.4-0.1,0.7-0.2,1c-0.1,0.3-0.3,0.6-0.5,0.8c-0.2,0.2-0.5,0.4-0.9,0.5c-0.3,0.1-0.7,0.2-1.2,0.2h-3.5
			V244.2z M308,250.9h1.9c0.2,0,0.5,0,0.7-0.1c0.2,0,0.4-0.1,0.5-0.2c0.1-0.1,0.3-0.3,0.3-0.4c0.1-0.2,0.1-0.4,0.1-0.6
			c0-0.2,0-0.5-0.1-0.6c-0.1-0.2-0.2-0.3-0.4-0.4c-0.2-0.1-0.3-0.2-0.6-0.2c-0.2-0.1-0.5-0.1-0.7-0.1H308V250.9z"/>
	</g>
	<g>
		<path class="st2" d="M182.3,299.6h1.4v4.4h5.7v-4.4h1.4v10.8h-1.4v-5.1h-5.7v5.1h-1.4V299.6z"/>
		<path class="st2" d="M193.4,302.5h1.3v6h0l3.9-6h1.5v7.8h-1.4v-6h0l-3.8,6h-1.5V302.5z"/>
		<path class="st2" d="M208,305.7h0.7l2.6-3.2h1.6l-3.1,3.7l3.2,4.1h-1.7l-2.7-3.6H208v3.6h-1.3v-3.6H206l-2.7,3.6h-1.7l3.2-4.1
			l-3.1-3.7h1.6l2.5,3.2h0.7v-3.2h1.3V305.7z"/>
		<path class="st2" d="M214.6,302.5h1.3v3.2h3.7v-3.2h1.4v7.8h-1.4v-3.5h-3.7v3.5h-1.3V302.5z"/>
		<path class="st2" d="M229.7,310.3h-1.4v-3.1h-1.7c-0.3,0-0.6,0-0.8,0c-0.2,0-0.4,0.1-0.6,0.1s-0.3,0.2-0.4,0.4
			c-0.1,0.2-0.1,0.4-0.2,0.7l-0.1,0.8c0,0,0,0.1,0,0.1c0,0.1,0,0.2,0,0.3c0,0.1,0,0.2-0.1,0.3s-0.1,0.2-0.1,0.3h-1.5
			c0,0,0.1-0.1,0.1-0.1c0,0,0.1-0.1,0.1-0.2c0-0.1,0.1-0.2,0.1-0.3c0-0.1,0.1-0.3,0.1-0.5l0.1-1c0-0.3,0.1-0.5,0.1-0.6
			c0-0.2,0.1-0.3,0.2-0.4c0.1-0.1,0.2-0.2,0.3-0.3c0.1-0.1,0.3-0.1,0.5-0.2c-0.8-0.3-1.3-0.9-1.3-1.9c0-0.2,0-0.5,0.1-0.6
			c0.1-0.2,0.1-0.4,0.2-0.5c0.1-0.2,0.2-0.3,0.3-0.4c0.1-0.1,0.2-0.2,0.4-0.3c0.2-0.1,0.3-0.2,0.5-0.2c0.2-0.1,0.4-0.1,0.5-0.1
			c0.2,0,0.4,0,0.5,0s0.3,0,0.5,0h3.5V310.3z M228.3,303.7h-2.1c-0.2,0-0.3,0-0.5,0c-0.1,0-0.2,0-0.3,0c-0.1,0-0.2,0-0.3,0.1
			s-0.2,0.1-0.2,0.1c-0.2,0.1-0.3,0.2-0.4,0.4c-0.1,0.2-0.1,0.4-0.1,0.6c0,0.2,0,0.4,0.1,0.5c0.1,0.1,0.1,0.3,0.3,0.4
			c0.1,0.1,0.2,0.2,0.4,0.2c0.1,0.1,0.3,0.1,0.4,0.1c0.1,0,0.3,0,0.4,0s0.2,0,0.3,0h2.1V303.7z"/>
		<path class="st2" d="M238.4,310.3H237v-3.1h-1.7c-0.3,0-0.6,0-0.8,0c-0.2,0-0.4,0.1-0.6,0.1s-0.3,0.2-0.4,0.4
			c-0.1,0.2-0.1,0.4-0.2,0.7l-0.1,0.8c0,0,0,0.1,0,0.1c0,0.1,0,0.2,0,0.3c0,0.1,0,0.2-0.1,0.3s-0.1,0.2-0.1,0.3h-1.5
			c0,0,0.1-0.1,0.1-0.1c0,0,0.1-0.1,0.1-0.2c0-0.1,0.1-0.2,0.1-0.3c0-0.1,0.1-0.3,0.1-0.5l0.1-1c0-0.3,0.1-0.5,0.1-0.6
			c0-0.2,0.1-0.3,0.2-0.4c0.1-0.1,0.2-0.2,0.3-0.3c0.1-0.1,0.3-0.1,0.5-0.2c-0.8-0.3-1.3-0.9-1.3-1.9c0-0.2,0-0.5,0.1-0.6
			c0.1-0.2,0.1-0.4,0.2-0.5c0.1-0.2,0.2-0.3,0.3-0.4c0.1-0.1,0.2-0.2,0.4-0.3c0.2-0.1,0.3-0.2,0.5-0.2c0.2-0.1,0.4-0.1,0.5-0.1
			c0.2,0,0.4,0,0.5,0s0.3,0,0.5,0h3.5V310.3z M237,303.7H235c-0.2,0-0.3,0-0.5,0c-0.1,0-0.2,0-0.3,0c-0.1,0-0.2,0-0.3,0.1
			s-0.2,0.1-0.2,0.1c-0.2,0.1-0.3,0.2-0.4,0.4c-0.1,0.2-0.1,0.4-0.1,0.6c0,0.2,0,0.4,0.1,0.5c0.1,0.1,0.1,0.3,0.3,0.4
			c0.1,0.1,0.2,0.2,0.4,0.2c0.1,0.1,0.3,0.1,0.4,0.1c0.1,0,0.3,0,0.4,0s0.2,0,0.3,0h2.1V303.7z"/>
		<path class="st2" d="M245.3,302.5h4.9v1.2h-3.5v6.7h-1.3V302.5z"/>
		<path class="st2" d="M251.7,302.5h1.3v1.1h0c0.1-0.2,0.2-0.4,0.3-0.5c0.1-0.2,0.3-0.3,0.5-0.4c0.2-0.1,0.4-0.2,0.7-0.3
			c0.2-0.1,0.5-0.1,0.8-0.1c0.4,0,0.8,0.1,1.2,0.2c0.4,0.2,0.7,0.4,1,0.7s0.5,0.7,0.7,1.2c0.2,0.5,0.3,1.1,0.3,1.7
			c0,0.8-0.1,1.5-0.2,2.1c-0.2,0.6-0.4,1-0.7,1.4c-0.3,0.4-0.7,0.6-1.1,0.8s-0.9,0.2-1.4,0.2c-0.3,0-0.5,0-0.7-0.1
			c-0.2-0.1-0.4-0.2-0.6-0.3c-0.2-0.1-0.3-0.2-0.5-0.4c-0.1-0.1-0.2-0.3-0.3-0.4h0v4h-1.3V302.5z M253,306.5c0,0.4,0,0.8,0.1,1.2
			c0.1,0.4,0.2,0.7,0.4,0.9c0.2,0.3,0.4,0.5,0.7,0.6c0.3,0.1,0.6,0.2,0.9,0.2c0.4,0,0.7-0.1,1-0.2c0.3-0.1,0.5-0.4,0.7-0.6
			s0.3-0.6,0.4-0.9c0.1-0.4,0.1-0.8,0.1-1.2c0-0.4,0-0.9-0.1-1.2c-0.1-0.4-0.2-0.7-0.4-1s-0.4-0.5-0.7-0.6c-0.3-0.1-0.6-0.2-1-0.2
			c-0.4,0-0.7,0.1-0.9,0.2c-0.3,0.1-0.5,0.4-0.7,0.6c-0.2,0.3-0.3,0.6-0.4,1C253,305.6,253,306,253,306.5z"/>
		<path class="st2" d="M260.4,304.8c0-0.5,0.1-0.9,0.3-1.2c0.2-0.3,0.4-0.6,0.7-0.8s0.6-0.4,1-0.4c0.4-0.1,0.8-0.1,1.3-0.1
			c0.4,0,0.8,0,1.1,0.1c0.4,0.1,0.7,0.2,1,0.4c0.3,0.2,0.5,0.4,0.7,0.7c0.2,0.3,0.3,0.6,0.3,1v4.6c0,0.1,0,0.2,0.1,0.3
			c0.1,0.1,0.2,0.1,0.3,0.1c0.1,0,0.1,0,0.2,0c0.1,0,0.1,0,0.2,0v0.9c-0.1,0-0.2,0.1-0.3,0.1c-0.1,0-0.2,0-0.4,0
			c-0.2,0-0.4,0-0.6-0.1c-0.2,0-0.3-0.1-0.4-0.2c-0.1-0.1-0.2-0.2-0.3-0.4c-0.1-0.1-0.1-0.3-0.1-0.5c-0.2,0.2-0.3,0.3-0.5,0.5
			c-0.2,0.2-0.4,0.3-0.6,0.4c-0.2,0.1-0.5,0.2-0.8,0.3c-0.3,0.1-0.6,0.1-1,0.1c-0.3,0-0.6,0-0.9-0.1c-0.3-0.1-0.5-0.2-0.8-0.4
			c-0.2-0.2-0.4-0.4-0.5-0.7c-0.1-0.3-0.2-0.6-0.2-1c0-0.4,0.1-0.8,0.2-1.1c0.1-0.3,0.3-0.5,0.5-0.7c0.2-0.2,0.5-0.3,0.8-0.5
			s0.6-0.2,0.9-0.2l2.2-0.3c0.2,0,0.4-0.1,0.5-0.2c0.1-0.1,0.2-0.4,0.2-0.7c0-0.5-0.2-0.8-0.5-1c-0.3-0.2-0.8-0.3-1.3-0.3
			c-0.6,0-1,0.1-1.3,0.4c-0.3,0.3-0.5,0.6-0.5,1.1H260.4z M265.3,306.3c-0.1,0.1-0.2,0.1-0.4,0.2c-0.2,0.1-0.3,0.1-0.5,0.1
			c-0.2,0-0.4,0.1-0.6,0.1c-0.2,0-0.4,0.1-0.6,0.1c-0.2,0-0.5,0.1-0.7,0.1c-0.2,0.1-0.4,0.1-0.5,0.2c-0.2,0.1-0.3,0.2-0.4,0.4
			c-0.1,0.1-0.1,0.3-0.1,0.5c0,0.2,0,0.4,0.1,0.6c0.1,0.2,0.2,0.3,0.3,0.4c0.1,0.1,0.3,0.2,0.5,0.3s0.4,0.1,0.6,0.1
			c0.1,0,0.3,0,0.5,0c0.2,0,0.3-0.1,0.5-0.1c0.2-0.1,0.4-0.1,0.5-0.2c0.2-0.1,0.3-0.2,0.5-0.4s0.2-0.3,0.3-0.5s0.1-0.4,0.1-0.6
			V306.3z"/>
		<path class="st2" d="M269.2,302.5h1.3v3.2h3.7v-3.2h1.4v7.8h-1.4v-3.5h-3.7v3.5h-1.3V302.5z"/>
		<path class="st2" d="M277.9,302.5h1.3v6h0l3.9-6h1.5v7.8h-1.4v-6h0l-3.8,6h-1.5V302.5z"/>
		<path class="st2" d="M287,302.5h1.3v6.7h3.7v-6.7h1.4v6.7h1v3.1h-1.3v-1.9H287V302.5z"/>
		<path class="st2" d="M295.9,304.8c0-0.5,0.1-0.9,0.3-1.2c0.2-0.3,0.4-0.6,0.7-0.8s0.6-0.4,1-0.4c0.4-0.1,0.8-0.1,1.3-0.1
			c0.4,0,0.8,0,1.1,0.1c0.4,0.1,0.7,0.2,1,0.4c0.3,0.2,0.5,0.4,0.7,0.7c0.2,0.3,0.3,0.6,0.3,1v4.6c0,0.1,0,0.2,0.1,0.3
			c0.1,0.1,0.2,0.1,0.3,0.1c0.1,0,0.1,0,0.2,0c0.1,0,0.1,0,0.2,0v0.9c-0.1,0-0.2,0.1-0.3,0.1c-0.1,0-0.2,0-0.4,0
			c-0.2,0-0.4,0-0.6-0.1c-0.2,0-0.3-0.1-0.4-0.2c-0.1-0.1-0.2-0.2-0.3-0.4c-0.1-0.1-0.1-0.3-0.1-0.5c-0.2,0.2-0.3,0.3-0.5,0.5
			c-0.2,0.2-0.4,0.3-0.6,0.4c-0.2,0.1-0.5,0.2-0.8,0.3c-0.3,0.1-0.6,0.1-1,0.1c-0.3,0-0.6,0-0.9-0.1c-0.3-0.1-0.5-0.2-0.8-0.4
			c-0.2-0.2-0.4-0.4-0.5-0.7c-0.1-0.3-0.2-0.6-0.2-1c0-0.4,0.1-0.8,0.2-1.1c0.1-0.3,0.3-0.5,0.5-0.7c0.2-0.2,0.5-0.3,0.8-0.5
			s0.6-0.2,0.9-0.2l2.2-0.3c0.2,0,0.4-0.1,0.5-0.2c0.1-0.1,0.2-0.4,0.2-0.7c0-0.5-0.2-0.8-0.5-1c-0.3-0.2-0.8-0.3-1.3-0.3
			c-0.6,0-1,0.1-1.3,0.4c-0.3,0.3-0.5,0.6-0.5,1.1H295.9z M300.8,306.3c-0.1,0.1-0.2,0.1-0.4,0.2c-0.2,0.1-0.3,0.1-0.5,0.1
			c-0.2,0-0.4,0.1-0.6,0.1c-0.2,0-0.4,0.1-0.6,0.1c-0.2,0-0.5,0.1-0.7,0.1c-0.2,0.1-0.4,0.1-0.5,0.2c-0.2,0.1-0.3,0.2-0.4,0.4
			c-0.1,0.1-0.1,0.3-0.1,0.5c0,0.2,0,0.4,0.1,0.6c0.1,0.2,0.2,0.3,0.3,0.4c0.1,0.1,0.3,0.2,0.5,0.3s0.4,0.1,0.6,0.1
			c0.1,0,0.3,0,0.5,0c0.2,0,0.3-0.1,0.5-0.1c0.2-0.1,0.4-0.1,0.5-0.2c0.2-0.1,0.3-0.2,0.5-0.4s0.2-0.3,0.3-0.5s0.1-0.4,0.1-0.6
			V306.3z"/>
	</g>
	<g>
		<path class="st2" d="M182.3,327.6h3.9c0.4,0,0.8,0,1.1,0c0.3,0,0.6,0.1,0.9,0.1c0.3,0.1,0.5,0.2,0.7,0.3c0.2,0.1,0.4,0.3,0.6,0.5
			c0.2,0.2,0.3,0.5,0.4,0.7c0.1,0.3,0.2,0.6,0.2,0.9c0,0.2,0,0.4-0.1,0.6s-0.1,0.4-0.2,0.6c-0.1,0.2-0.3,0.4-0.4,0.6
			c-0.2,0.2-0.4,0.3-0.7,0.4c0.2,0.1,0.4,0.2,0.7,0.3c0.2,0.1,0.4,0.3,0.6,0.5c0.2,0.2,0.3,0.5,0.5,0.8c0.1,0.3,0.2,0.6,0.2,1.1
			c0,0.2,0,0.5-0.1,0.7c-0.1,0.3-0.1,0.5-0.3,0.7c-0.1,0.2-0.3,0.5-0.5,0.7s-0.4,0.4-0.7,0.5c-0.3,0.2-0.6,0.3-1,0.4
			c-0.4,0.1-0.8,0.1-1.2,0.1h-4.5V327.6z M186.4,332.2c0.5,0,0.9,0,1.1-0.1c0.3-0.1,0.5-0.2,0.7-0.4c0.2-0.2,0.3-0.3,0.3-0.5
			s0.1-0.4,0.1-0.7c0-0.3,0-0.5-0.1-0.7c-0.1-0.2-0.2-0.4-0.4-0.5s-0.4-0.2-0.7-0.3c-0.3-0.1-0.6-0.1-1-0.1h-2.7v3.3H186.4z
			 M186.6,337.1c0.5,0,0.9,0,1.2-0.1c0.3-0.1,0.6-0.2,0.8-0.4c0.2-0.2,0.3-0.4,0.4-0.6s0.1-0.5,0.1-0.8s0-0.5-0.1-0.8
			c-0.1-0.2-0.2-0.4-0.4-0.6c-0.2-0.2-0.5-0.3-0.8-0.4c-0.3-0.1-0.7-0.1-1.2-0.1h-2.9v3.8H186.6z"/>
		<path class="st2" d="M192.5,330.5h1.3v3h2.4c0.4,0,0.8,0.1,1.1,0.2c0.3,0.1,0.6,0.3,0.9,0.5c0.2,0.2,0.4,0.5,0.5,0.8
			c0.1,0.3,0.2,0.6,0.2,1c0,0.4-0.1,0.7-0.2,1c-0.1,0.3-0.3,0.6-0.5,0.8c-0.2,0.2-0.5,0.4-0.9,0.5c-0.3,0.1-0.7,0.2-1.1,0.2h-3.7
			V330.5z M193.9,337.3h2.1c0.2,0,0.5,0,0.7-0.1c0.2,0,0.4-0.1,0.5-0.2c0.1-0.1,0.3-0.3,0.3-0.4c0.1-0.2,0.1-0.4,0.1-0.6
			c0-0.2,0-0.5-0.1-0.6c-0.1-0.2-0.2-0.3-0.4-0.4c-0.2-0.1-0.3-0.2-0.6-0.2c-0.2-0.1-0.5-0.1-0.7-0.1h-2V337.3z M200,330.5h1.3v7.8
			H200V330.5z"/>
		<path class="st2" d="M209.8,327.5c0,0.1,0,0.2,0,0.3c0,0.1,0,0.2-0.1,0.3s-0.1,0.2-0.2,0.4c-0.1,0.1-0.2,0.2-0.3,0.3
			c-0.1,0.1-0.1,0.1-0.2,0.1c-0.1,0-0.1,0.1-0.2,0.1s-0.2,0.1-0.4,0.1c-0.2,0-0.4,0-0.6,0l-0.6,0c-0.4,0-0.7,0.1-1,0.2
			c-0.3,0.1-0.6,0.3-0.8,0.6c-0.2,0.3-0.4,0.6-0.6,0.9c-0.2,0.4-0.3,0.8-0.3,1.2c0.1-0.2,0.2-0.4,0.4-0.6c0.2-0.2,0.3-0.4,0.6-0.5
			c0.2-0.1,0.5-0.3,0.8-0.4c0.3-0.1,0.7-0.1,1.1-0.1c0.5,0,0.9,0.1,1.3,0.2c0.4,0.2,0.8,0.4,1.1,0.7c0.3,0.3,0.5,0.7,0.7,1.2
			s0.3,1,0.3,1.7c0,0.2,0,0.4,0,0.7c0,0.3-0.1,0.6-0.2,0.9c-0.1,0.3-0.2,0.6-0.4,0.9c-0.2,0.3-0.4,0.6-0.7,0.8
			c-0.3,0.2-0.6,0.4-1,0.6c-0.4,0.2-0.9,0.2-1.4,0.2c-0.2,0-0.5,0-0.7-0.1c-0.3,0-0.5-0.1-0.8-0.2c-0.3-0.1-0.5-0.2-0.7-0.4
			c-0.2-0.2-0.5-0.4-0.6-0.7c-0.1-0.1-0.2-0.3-0.3-0.5c-0.1-0.2-0.2-0.4-0.3-0.6s-0.1-0.6-0.2-0.9c0-0.3-0.1-0.8-0.1-1.2
			c0-0.3,0-0.7,0-1.1c0-0.4,0.1-0.8,0.2-1.2c0.1-0.4,0.2-0.8,0.3-1.2c0.1-0.4,0.3-0.7,0.5-1c0.2-0.3,0.4-0.6,0.6-0.8
			s0.5-0.3,0.7-0.5c0.3-0.1,0.5-0.2,0.8-0.2s0.6-0.1,1-0.1l0.5,0c0.2,0,0.3,0,0.4,0c0.1,0,0.2,0,0.3-0.1s0.1-0.1,0.2-0.1
			s0.1-0.1,0.1-0.2H209.8z M204.6,334.6c0,0.1,0,0.3,0,0.5c0,0.2,0.1,0.4,0.1,0.6c0.1,0.2,0.1,0.4,0.2,0.6s0.2,0.4,0.4,0.6
			c0.2,0.2,0.4,0.3,0.6,0.4c0.2,0.1,0.5,0.2,0.9,0.2c0.4,0,0.7-0.1,1-0.2c0.3-0.1,0.5-0.3,0.7-0.5c0.2-0.2,0.3-0.4,0.4-0.7
			c0.1-0.2,0.2-0.5,0.2-0.7c0-0.2,0.1-0.4,0.1-0.6c0-0.2,0-0.3,0-0.4c0-0.4,0-0.7-0.1-1c-0.1-0.3-0.2-0.6-0.4-0.9
			c-0.2-0.3-0.4-0.5-0.7-0.6c-0.3-0.2-0.6-0.2-1.1-0.2c-0.4,0-0.8,0.1-1,0.2c-0.3,0.2-0.5,0.4-0.7,0.6c-0.2,0.3-0.3,0.6-0.4,0.9
			C204.7,333.8,204.6,334.1,204.6,334.6z"/>
		<path class="st2" d="M212.4,330.5h1.3v1.1h0c0.1-0.2,0.2-0.4,0.3-0.5c0.1-0.2,0.3-0.3,0.5-0.4c0.2-0.1,0.4-0.2,0.7-0.3
			c0.2-0.1,0.5-0.1,0.8-0.1c0.4,0,0.8,0.1,1.2,0.2c0.4,0.2,0.7,0.4,1,0.7s0.5,0.7,0.7,1.2c0.2,0.5,0.3,1.1,0.3,1.7
			c0,0.8-0.1,1.5-0.2,2.1c-0.2,0.6-0.4,1-0.7,1.4c-0.3,0.4-0.7,0.6-1.1,0.8s-0.9,0.2-1.4,0.2c-0.3,0-0.5,0-0.7-0.1
			c-0.2-0.1-0.4-0.2-0.6-0.3c-0.2-0.1-0.3-0.2-0.5-0.4c-0.1-0.1-0.2-0.3-0.3-0.4h0v4h-1.3V330.5z M213.7,334.5c0,0.4,0,0.8,0.1,1.2
			c0.1,0.4,0.2,0.7,0.4,0.9c0.2,0.3,0.4,0.5,0.7,0.6c0.3,0.1,0.6,0.2,0.9,0.2c0.4,0,0.7-0.1,1-0.2c0.3-0.1,0.5-0.4,0.7-0.6
			s0.3-0.6,0.4-0.9c0.1-0.4,0.1-0.8,0.1-1.2c0-0.4,0-0.9-0.1-1.2c-0.1-0.4-0.2-0.7-0.4-1s-0.4-0.5-0.7-0.6c-0.3-0.1-0.6-0.2-1-0.2
			c-0.4,0-0.7,0.1-0.9,0.2c-0.3,0.1-0.5,0.4-0.7,0.6c-0.2,0.3-0.3,0.6-0.4,1C213.7,333.6,213.7,334,213.7,334.5z"/>
		<path class="st2" d="M228,334.4c0,0.6-0.1,1.2-0.2,1.7c-0.2,0.5-0.4,1-0.7,1.3s-0.7,0.6-1.1,0.8c-0.5,0.2-1,0.3-1.5,0.3
			c-0.6,0-1.1-0.1-1.5-0.3c-0.4-0.2-0.8-0.5-1.1-0.8s-0.6-0.8-0.7-1.3c-0.2-0.5-0.2-1.1-0.2-1.7c0-0.6,0.1-1.2,0.2-1.7
			s0.4-0.9,0.7-1.3s0.7-0.6,1.1-0.8c0.4-0.2,1-0.3,1.5-0.3c0.6,0,1.1,0.1,1.5,0.3c0.5,0.2,0.8,0.5,1.1,0.8s0.6,0.8,0.7,1.3
			C227.9,333.2,228,333.8,228,334.4z M226.7,334.4c0-0.4,0-0.8-0.1-1.2c-0.1-0.4-0.2-0.7-0.4-0.9s-0.4-0.5-0.7-0.6
			c-0.3-0.1-0.6-0.2-1-0.2c-0.4,0-0.7,0.1-1,0.2c-0.3,0.1-0.5,0.4-0.7,0.6s-0.3,0.6-0.4,0.9c-0.1,0.4-0.1,0.8-0.1,1.2
			c0,0.4,0,0.8,0.1,1.2c0.1,0.4,0.2,0.7,0.4,0.9s0.4,0.5,0.7,0.6c0.3,0.1,0.6,0.2,1,0.2c0.4,0,0.7-0.1,1-0.2
			c0.3-0.1,0.5-0.4,0.7-0.6s0.3-0.6,0.4-0.9C226.6,335.2,226.7,334.8,226.7,334.4z"/>
		<path class="st2" d="M236.1,335.6c0,0.2-0.1,0.4-0.1,0.6c-0.1,0.2-0.1,0.4-0.2,0.7c-0.1,0.2-0.2,0.4-0.4,0.6
			c-0.2,0.2-0.4,0.4-0.6,0.5c-0.2,0.2-0.5,0.3-0.9,0.4c-0.3,0.1-0.7,0.1-1.1,0.1c-0.2,0-0.5,0-0.7-0.1c-0.3-0.1-0.5-0.1-0.7-0.3
			c-0.2-0.1-0.5-0.3-0.7-0.5c-0.2-0.2-0.4-0.5-0.6-0.8c-0.2-0.3-0.3-0.7-0.4-1.1c-0.1-0.4-0.1-0.9-0.1-1.4c0-0.6,0.1-1.2,0.3-1.8
			c0.2-0.5,0.4-1,0.7-1.3c0.3-0.4,0.7-0.6,1.1-0.8c0.4-0.2,0.8-0.3,1.3-0.3c0.4,0,0.8,0,1.1,0.1c0.3,0.1,0.6,0.2,0.8,0.4
			s0.4,0.3,0.6,0.5c0.2,0.2,0.3,0.4,0.4,0.6c0.1,0.2,0.2,0.4,0.2,0.6c0.1,0.2,0.1,0.4,0.1,0.6h-1.3c-0.1-0.5-0.3-1-0.6-1.3
			c-0.3-0.3-0.7-0.5-1.3-0.5c-0.4,0-0.7,0.1-1,0.2c-0.3,0.2-0.5,0.4-0.7,0.6c-0.2,0.3-0.3,0.6-0.4,1c-0.1,0.4-0.1,0.8-0.1,1.3
			c0,0.5,0,1,0.1,1.3c0.1,0.4,0.2,0.7,0.4,0.9c0.2,0.2,0.4,0.4,0.7,0.5c0.3,0.1,0.6,0.2,0.9,0.2c0.2,0,0.5,0,0.7-0.1
			c0.2-0.1,0.4-0.2,0.6-0.4c0.2-0.2,0.3-0.4,0.4-0.6s0.2-0.5,0.2-0.8H236.1z"/>
		<path class="st2" d="M240.2,327.6h1.1l-3.4,10.8h-1.1L240.2,327.6z"/>
		<path class="st2" d="M244.4,331.7h-2.7v-1.2h6.8v1.2h-2.7v6.7h-1.3V331.7z"/>
		<path class="st2" d="M257,334.4c0,0.6-0.1,1.2-0.2,1.7c-0.2,0.5-0.4,1-0.7,1.3s-0.7,0.6-1.1,0.8c-0.5,0.2-1,0.3-1.5,0.3
			c-0.6,0-1.1-0.1-1.5-0.3c-0.4-0.2-0.8-0.5-1.1-0.8s-0.6-0.8-0.7-1.3c-0.2-0.5-0.2-1.1-0.2-1.7c0-0.6,0.1-1.2,0.2-1.7
			s0.4-0.9,0.7-1.3s0.7-0.6,1.1-0.8c0.4-0.2,1-0.3,1.5-0.3c0.6,0,1.1,0.1,1.5,0.3c0.5,0.2,0.8,0.5,1.1,0.8s0.6,0.8,0.7,1.3
			C256.9,333.2,257,333.8,257,334.4z M255.7,334.4c0-0.4,0-0.8-0.1-1.2c-0.1-0.4-0.2-0.7-0.4-0.9s-0.4-0.5-0.7-0.6
			c-0.3-0.1-0.6-0.2-1-0.2c-0.4,0-0.7,0.1-1,0.2c-0.3,0.1-0.5,0.4-0.7,0.6s-0.3,0.6-0.4,0.9c-0.1,0.4-0.1,0.8-0.1,1.2
			c0,0.4,0,0.8,0.1,1.2c0.1,0.4,0.2,0.7,0.4,0.9s0.4,0.5,0.7,0.6c0.3,0.1,0.6,0.2,1,0.2c0.4,0,0.7-0.1,1-0.2
			c0.3-0.1,0.5-0.4,0.7-0.6s0.3-0.6,0.4-0.9C255.6,335.2,255.7,334.8,255.7,334.4z"/>
		<path class="st2" d="M263.6,335.2c-0.3,0.1-0.6,0.1-1,0.2c-0.3,0.1-0.7,0.1-1,0.1c-1,0-1.8-0.2-2.3-0.6c-0.5-0.4-0.8-1-0.8-1.9
			v-2.4h1.3v2.2c0,0.3,0,0.5,0.1,0.8c0.1,0.2,0.2,0.4,0.3,0.5c0.2,0.1,0.4,0.2,0.6,0.3s0.6,0.1,1,0.1c0.1,0,0.2,0,0.4,0
			c0.1,0,0.3,0,0.4-0.1c0.2,0,0.3-0.1,0.4-0.1c0.1,0,0.3-0.1,0.4-0.1v-3.6h1.4v7.8h-1.4V335.2z"/>
		<path class="st2" d="M267.3,330.5h1.3v3.8l4-3.8h1.8l-3.7,3.5l3.7,4.4h-1.7l-3.1-3.6l-1,0.8v2.7h-1.3V330.5z"/>
		<path class="st2" d="M275.9,332.8c0-0.5,0.1-0.9,0.3-1.2c0.2-0.3,0.4-0.6,0.7-0.8s0.6-0.4,1-0.4c0.4-0.1,0.8-0.1,1.3-0.1
			c0.4,0,0.8,0,1.1,0.1c0.4,0.1,0.7,0.2,1,0.4c0.3,0.2,0.5,0.4,0.7,0.7c0.2,0.3,0.3,0.6,0.3,1v4.6c0,0.1,0,0.2,0.1,0.3
			c0.1,0.1,0.2,0.1,0.3,0.1c0.1,0,0.1,0,0.2,0c0.1,0,0.1,0,0.2,0v0.9c-0.1,0-0.2,0.1-0.3,0.1c-0.1,0-0.2,0-0.4,0
			c-0.2,0-0.4,0-0.6-0.1c-0.2,0-0.3-0.1-0.4-0.2c-0.1-0.1-0.2-0.2-0.3-0.4c-0.1-0.1-0.1-0.3-0.1-0.5c-0.2,0.2-0.3,0.3-0.5,0.5
			c-0.2,0.2-0.4,0.3-0.6,0.4c-0.2,0.1-0.5,0.2-0.8,0.3c-0.3,0.1-0.6,0.1-1,0.1c-0.3,0-0.6,0-0.9-0.1c-0.3-0.1-0.5-0.2-0.8-0.4
			c-0.2-0.2-0.4-0.4-0.5-0.7c-0.1-0.3-0.2-0.6-0.2-1c0-0.4,0.1-0.8,0.2-1.1c0.1-0.3,0.3-0.5,0.5-0.7c0.2-0.2,0.5-0.3,0.8-0.5
			s0.6-0.2,0.9-0.2l2.2-0.3c0.2,0,0.4-0.1,0.5-0.2c0.1-0.1,0.2-0.4,0.2-0.7c0-0.5-0.2-0.8-0.5-1c-0.3-0.2-0.8-0.3-1.3-0.3
			c-0.6,0-1,0.1-1.3,0.4c-0.3,0.3-0.5,0.6-0.5,1.1H275.9z M280.8,334.3c-0.1,0.1-0.2,0.1-0.4,0.2c-0.2,0.1-0.3,0.1-0.5,0.1
			c-0.2,0-0.4,0.1-0.6,0.1c-0.2,0-0.4,0.1-0.6,0.1c-0.2,0-0.5,0.1-0.7,0.1c-0.2,0.1-0.4,0.1-0.5,0.2c-0.2,0.1-0.3,0.2-0.4,0.4
			c-0.1,0.1-0.1,0.3-0.1,0.5c0,0.2,0,0.4,0.1,0.6c0.1,0.2,0.2,0.3,0.3,0.4c0.1,0.1,0.3,0.2,0.5,0.3s0.4,0.1,0.6,0.1
			c0.1,0,0.3,0,0.5,0c0.2,0,0.3-0.1,0.5-0.1c0.2-0.1,0.4-0.1,0.5-0.2c0.2-0.1,0.3-0.2,0.5-0.4s0.2-0.3,0.3-0.5s0.1-0.4,0.1-0.6
			V334.3z"/>
		<path class="st2" d="M188.8,353.8c-0.1,0.3-0.2,0.7-0.4,1c-0.2,0.3-0.4,0.6-0.7,0.9c-0.3,0.3-0.6,0.5-1,0.6
			c-0.4,0.2-0.8,0.2-1.3,0.2c-0.5,0-1-0.1-1.5-0.3c-0.4-0.2-0.8-0.4-1.2-0.8c-0.3-0.3-0.6-0.8-0.8-1.3s-0.3-1.1-0.3-1.9
			c0-0.5,0.1-0.9,0.2-1.3c0.1-0.4,0.2-0.7,0.4-1c0.2-0.3,0.4-0.6,0.6-0.8c0.2-0.2,0.5-0.4,0.7-0.5c0.3-0.1,0.5-0.3,0.8-0.3
			c0.3-0.1,0.5-0.1,0.8-0.1c0.5,0,1,0.1,1.5,0.2c0.4,0.2,0.8,0.4,1.1,0.7c0.3,0.3,0.6,0.7,0.7,1.2c0.2,0.5,0.3,1.1,0.3,1.7v0.7h-5.7
			c0,0.4,0.1,0.7,0.2,1c0.1,0.3,0.2,0.6,0.4,0.8c0.2,0.2,0.4,0.4,0.7,0.5c0.3,0.1,0.6,0.2,0.9,0.2c0.3,0,0.6,0,0.9-0.1
			s0.4-0.2,0.6-0.4s0.3-0.3,0.4-0.5c0.1-0.2,0.2-0.4,0.3-0.5H188.8z M187.6,351.8c0-0.4-0.1-0.7-0.2-1c-0.1-0.3-0.3-0.5-0.4-0.8
			c-0.2-0.2-0.4-0.4-0.7-0.5c-0.3-0.1-0.6-0.2-0.9-0.2c-0.3,0-0.6,0.1-0.8,0.2c-0.3,0.1-0.5,0.3-0.7,0.5c-0.2,0.2-0.4,0.5-0.5,0.8
			c-0.1,0.3-0.2,0.6-0.2,1H187.6z"/>
		<path class="st2" d="M197.4,356.3h-6.1v1.9h-1.3v-3.1h1c0.2-0.5,0.4-1.1,0.5-1.6c0.1-0.5,0.2-1.1,0.3-1.7c0.1-0.6,0.1-1.1,0.1-1.7
			c0-0.6,0-1.1,0-1.7h5.5v6.7h1.1v3.1h-1.3V356.3z M196.2,355.2v-5.5h-2.8c0,0.4-0.1,0.9-0.1,1.4c0,0.5-0.1,0.9-0.1,1.4
			c-0.1,0.5-0.1,0.9-0.2,1.4c-0.1,0.5-0.2,0.9-0.4,1.3H196.2z"/>
		<path class="st2" d="M200.3,348.5h1.3v6h0l3.9-6h1.5v7.8h-1.4v-6h0l-3.8,6h-1.5V348.5z"/>
		<path class="st2" d="M209.5,348.5h1.3v3.2h3.7v-3.2h1.4v7.8h-1.4v-3.5h-3.7v3.5h-1.3V348.5z"/>
		<path class="st2" d="M218.2,348.5h1.3v6h0l3.9-6h1.5v7.8h-1.4v-6h0l-3.8,6h-1.5V348.5z"/>
		<path class="st2" d="M232,353.2c-0.3,0.1-0.6,0.1-1,0.2c-0.3,0.1-0.7,0.1-1,0.1c-1,0-1.8-0.2-2.3-0.6c-0.5-0.4-0.8-1-0.8-1.9v-2.4
			h1.3v2.2c0,0.3,0,0.5,0.1,0.8c0.1,0.2,0.2,0.4,0.3,0.5c0.2,0.1,0.4,0.2,0.6,0.3s0.6,0.1,1,0.1c0.1,0,0.2,0,0.4,0
			c0.1,0,0.3,0,0.4-0.1c0.2,0,0.3-0.1,0.4-0.1c0.1,0,0.3-0.1,0.4-0.1v-3.6h1.4v7.8H232V353.2z"/>
		<path class="st2" d="M235.8,348.5h1.3v3.2h3.7v-3.2h1.4v7.8h-1.4v-3.5h-3.7v3.5h-1.3V348.5z"/>
		<path class="st2" d="M244.5,348.5h1.3v3h2.4c0.4,0,0.8,0.1,1.1,0.2c0.3,0.1,0.6,0.3,0.9,0.5c0.2,0.2,0.4,0.5,0.5,0.8
			c0.1,0.3,0.2,0.6,0.2,1c0,0.4-0.1,0.7-0.2,1c-0.1,0.3-0.3,0.6-0.5,0.8c-0.2,0.2-0.5,0.4-0.9,0.5c-0.3,0.1-0.7,0.2-1.1,0.2h-3.7
			V348.5z M245.8,355.3h2.1c0.2,0,0.5,0,0.7-0.1c0.2,0,0.4-0.1,0.5-0.2c0.1-0.1,0.3-0.3,0.3-0.4c0.1-0.2,0.1-0.4,0.1-0.6
			c0-0.2,0-0.5-0.1-0.6c-0.1-0.2-0.2-0.3-0.4-0.4c-0.2-0.1-0.3-0.2-0.6-0.2c-0.2-0.1-0.5-0.1-0.7-0.1h-2V355.3z M252,348.5h1.3v7.8
			H252V348.5z"/>
		<path class="st2" d="M258.4,353.4l-1.8,2.9h-1.7l2.7-4l-2.6-3.8h1.7l1.9,2.7l1.8-2.7h1.6l-2.7,3.8l2.8,4h-1.7L258.4,353.4z"/>
		<path class="st2" d="M274.6,356.3h-6.1v1.9h-1.3v-3.1h1c0.2-0.5,0.4-1.1,0.5-1.6c0.1-0.5,0.2-1.1,0.3-1.7c0.1-0.6,0.1-1.1,0.1-1.7
			c0-0.6,0-1.1,0-1.7h5.5v6.7h1.1v3.1h-1.3V356.3z M273.4,355.2v-5.5h-2.8c0,0.4-0.1,0.9-0.1,1.4c0,0.5-0.1,0.9-0.1,1.4
			c-0.1,0.5-0.1,0.9-0.2,1.4c-0.1,0.5-0.2,0.9-0.4,1.3H273.4z"/>
		<path class="st2" d="M277.5,350.8c0-0.5,0.1-0.9,0.3-1.2c0.2-0.3,0.4-0.6,0.7-0.8s0.6-0.4,1-0.4c0.4-0.1,0.8-0.1,1.3-0.1
			c0.4,0,0.8,0,1.1,0.1c0.4,0.1,0.7,0.2,1,0.4c0.3,0.2,0.5,0.4,0.7,0.7c0.2,0.3,0.3,0.6,0.3,1v4.6c0,0.1,0,0.2,0.1,0.3
			c0.1,0.1,0.2,0.1,0.3,0.1c0.1,0,0.1,0,0.2,0c0.1,0,0.1,0,0.2,0v0.9c-0.1,0-0.2,0.1-0.3,0.1c-0.1,0-0.2,0-0.4,0
			c-0.2,0-0.4,0-0.6-0.1c-0.2,0-0.3-0.1-0.4-0.2c-0.1-0.1-0.2-0.2-0.3-0.4c-0.1-0.1-0.1-0.3-0.1-0.5c-0.2,0.2-0.3,0.3-0.5,0.5
			c-0.2,0.2-0.4,0.3-0.6,0.4c-0.2,0.1-0.5,0.2-0.8,0.3c-0.3,0.1-0.6,0.1-1,0.1c-0.3,0-0.6,0-0.9-0.1c-0.3-0.1-0.5-0.2-0.8-0.4
			c-0.2-0.2-0.4-0.4-0.5-0.7c-0.1-0.3-0.2-0.6-0.2-1c0-0.4,0.1-0.8,0.2-1.1c0.1-0.3,0.3-0.5,0.5-0.7c0.2-0.2,0.5-0.3,0.8-0.5
			s0.6-0.2,0.9-0.2l2.2-0.3c0.2,0,0.4-0.1,0.5-0.2c0.1-0.1,0.2-0.4,0.2-0.7c0-0.5-0.2-0.8-0.5-1c-0.3-0.2-0.8-0.3-1.3-0.3
			c-0.6,0-1,0.1-1.3,0.4c-0.3,0.3-0.5,0.6-0.5,1.1H277.5z M282.4,352.3c-0.1,0.1-0.2,0.1-0.4,0.2c-0.2,0.1-0.3,0.1-0.5,0.1
			c-0.2,0-0.4,0.1-0.6,0.1c-0.2,0-0.4,0.1-0.6,0.1c-0.2,0-0.5,0.1-0.7,0.1c-0.2,0.1-0.4,0.1-0.5,0.2c-0.2,0.1-0.3,0.2-0.4,0.4
			c-0.1,0.1-0.1,0.3-0.1,0.5c0,0.2,0,0.4,0.1,0.6c0.1,0.2,0.2,0.3,0.3,0.4c0.1,0.1,0.3,0.2,0.5,0.3s0.4,0.1,0.6,0.1
			c0.1,0,0.3,0,0.5,0c0.2,0,0.3-0.1,0.5-0.1c0.2-0.1,0.4-0.1,0.5-0.2c0.2-0.1,0.3-0.2,0.5-0.4s0.2-0.3,0.3-0.5s0.1-0.4,0.1-0.6
			V352.3z"/>
		<path class="st2" d="M286.3,348.5h1.3v3.2h3.7v-3.2h1.4v7.8h-1.4v-3.5h-3.7v3.5h-1.3V348.5z"/>
		<path class="st2" d="M295,348.5h1.3v3.2h3.7v-3.2h1.4v7.8H300v-3.5h-3.7v3.5H295V348.5z"/>
		<path class="st2" d="M303.7,348.5h1.3v3h2.4c0.4,0,0.8,0.1,1.1,0.2c0.3,0.1,0.6,0.3,0.9,0.5c0.2,0.2,0.4,0.5,0.5,0.8
			c0.1,0.3,0.2,0.6,0.2,1c0,0.4-0.1,0.7-0.2,1c-0.1,0.3-0.3,0.6-0.5,0.8c-0.2,0.2-0.5,0.4-0.9,0.5c-0.3,0.1-0.7,0.2-1.1,0.2h-3.7
			V348.5z M305.1,355.3h2.1c0.2,0,0.5,0,0.7-0.1c0.2,0,0.4-0.1,0.5-0.2c0.1-0.1,0.3-0.3,0.3-0.4c0.1-0.2,0.1-0.4,0.1-0.6
			c0-0.2,0-0.5-0.1-0.6c-0.1-0.2-0.2-0.3-0.4-0.4c-0.2-0.1-0.3-0.2-0.6-0.2c-0.2-0.1-0.5-0.1-0.7-0.1h-2V355.3z M311.2,348.5h1.3
			v7.8h-1.3V348.5z"/>
		<path class="st2" d="M317.6,353.4l-1.8,2.9h-1.7l2.7-4l-2.6-3.8h1.7l1.9,2.7l1.8-2.7h1.6l-2.7,3.8l2.8,4h-1.7L317.6,353.4z"/>
	</g>
	<polygon class="st2" points="146.8,86.2 140.4,82.5 146.8,78.8 	"/>
	<polygon class="st2" points="43.1,37.8 39.4,44.2 35.8,37.8 	"/>
	<line class="st6" x1="142.7" y1="121.6" x2="175.5" y2="121.6"/>
	<line class="st6" x1="142.7" y1="82.7" x2="175.5" y2="82.7"/>
	<polygon class="st2" points="145,125.2 138.7,121.5 145,117.8 	"/>
	<line class="st6" x1="142.7" y1="183.6" x2="175.5" y2="183.6"/>
	<polygon class="st2" points="145,187.2 138.7,183.5 145,179.8 	"/>
	<line class="st6" x1="142.7" y1="247.7" x2="175.5" y2="247.7"/>
	<polygon class="st2" points="145,251.3 138.7,247.6 145,244 	"/>
	<line class="st6" x1="142.7" y1="305.5" x2="175.5" y2="305.5"/>
	<polygon class="st2" points="145,309.1 138.7,305.4 145,301.7 	"/>
	<line class="st6" x1="125.2" y1="277.2" x2="175.5" y2="277.2"/>
	<polygon class="st2" points="126.5,280.8 120.2,277.1 126.5,273.5 	"/>
	<line class="st6" x1="127.5" y1="334" x2="175.5" y2="334"/>
	<polygon class="st2" points="128.5,337.6 122.2,333.9 128.5,330.2 	"/>
	<g>
	</g>
	<g>
	</g>
	<g>
	</g>
	<g>
	</g>
	<g>
	</g>
	<g>
	</g>
	<g>
	</g>
	<g>
	</g>
	<g>
	</g>
	<g>
	</g>
</g>
</svg>
